<svg xmlns="http://www.w3.org/2000/svg" viewBox="0 0 303.29 60.34"><defs><style>.cls-1{opacity:0.3;}.cls-2,.cls-4{fill:#fff;}.cls-2{opacity:0.74;}.cls-3{opacity:0.86;}</style></defs><title>Asset 3</title><g id="Layer_2" data-name="Layer 2"><g id="Layer_3" data-name="Layer 3"><g class="cls-1"><path class="cls-2" d="M294.13,24.86a14.28,14.28,0,0,0-4.86,1.44,6.49,6.49,0,0,0,0-3.3c-1.46-5.29-9.16-8.8-17.19-7.84-5.83.7-10.23,3.56-11.65,7.09-27-8.51-51.36,4.93-54,14.49-.28,1,.64,1.95,1.08,2.89-3-3.57-9.26-6.38-17-7.14-10.8-1.05-20.64,2.27-23.14,7.56-.7,0-1.4-.09-2.12-.12a4.64,4.64,0,0,0,.44-2c0-3.86-4.88-7-10.9-7-3.84,0-7.21,1.27-9.15,3.2-2.73-7.61-14.1-13.32-27.72-13.32-15.17,0-27.56,7.08-28.31,16l-.31,0a6.12,6.12,0,0,0,.34-4.2c-1.36-4.93-8.54-8.2-16-7.31-4.53.55-8.14,2.49-10,5-1.12-2.23-4.58-3.63-8.18-3.2l-.28,0a6.14,6.14,0,0,0,.46-4.44,7.85,7.85,0,0,0-2.38-3.68v-.26h-.3c-3.05-2.58-8.12-4-13.36-3.36a18.18,18.18,0,0,0-5,1.29,10.09,10.09,0,0,0-.28-4.18C31.93,4.26,19.81-1.26,7.16.25A32.22,32.22,0,0,0,0,1.93V60.34H303.29V26.5A15.27,15.27,0,0,0,294.13,24.86Z"/><path class="cls-2" d="M209.24,16.77h0a3.56,3.56,0,0,0-6.82-.49,1,1,0,0,0-1.76.72,1.17,1.17,0,0,0,.07.38,2.38,2.38,0,0,0-1.09-.28,2.44,2.44,0,0,0-1,4.68A3.58,3.58,0,0,0,204.83,23a2.05,2.05,0,0,0,3.73-1.19,2.12,2.12,0,0,0-.1-.62,2.21,2.21,0,0,0,.78.15,2.3,2.3,0,0,0,0-4.6Z"/><path class="cls-2" d="M120.52,15.05a2.92,2.92,0,0,0-4.92-2.14,2.08,2.08,0,0,0-4.09.5,1,1,0,0,0-.28-.46,1.17,1.17,0,1,0-1.65,1.65l0,0a1.08,1.08,0,0,0-.19,0,2.11,2.11,0,0,0-2.51,1.54,2.11,2.11,0,0,0,2,2.11,2.6,2.6,0,0,0,1.73-.37,2.63,2.63,0,0,0,4.73,1,1.24,1.24,0,0,0,1.14.75,1.24,1.24,0,0,0,1.14-1.7A2.92,2.92,0,0,0,120.52,15.05Zm-8.3-.07h0Z"/><g class="cls-3"><path class="cls-4" d="M100.06,10.28h0a5,5,0,0,0-9.52-.68,1.44,1.44,0,0,0-2.46,1,1.5,1.5,0,0,0,.1.52,3.27,3.27,0,0,0-1.53-.38A3.42,3.42,0,1,0,89,16.6l0,0a2.17,2.17,0,0,0-.82,1.7,2.22,2.22,0,1,0,4.43,0,1.75,1.75,0,0,0,0-.32,3.27,3.27,0,0,0,6.25-1.37.88.88,0,0,0,0-.17,3.28,3.28,0,0,0,1.25.25,3.22,3.22,0,1,0,0-6.43ZM89.24,12h.12l-.07.06A.18.18,0,0,0,89.24,12Z"/></g></g></g></g></svg>