<svg xmlns="http://www.w3.org/2000/svg" viewBox="0 0 189.63 81.93"><defs><style>.cls-1{fill:#af371b;}.cls-2{fill:#d67b18;}.cls-3{fill:#b25e0b;}.cls-4{fill:#dd8c2c;}.cls-5{fill:#f7c779;}.cls-6{fill:#f4f2f4;}.cls-7{fill:#365478;}.cls-128,.cls-54,.cls-55,.cls-58,.cls-8{fill:#fff;}.cls-9{fill:#963b18;}.cls-10{fill:#c14c30;}.cls-11{fill:#024866;opacity:0.18;}.cls-12{fill:#b1d57e;}.cls-13{fill:#3f8cbc;}.cls-14{fill:#efc6b4;}.cls-15{fill:#161616;}.cls-16{fill:#ff8adb;}.cls-17{fill:#5e7be5;}.cls-18{fill:#f2b438;}.cls-19{fill:#988de2;}.cls-20{fill:#746cd3;}.cls-21{fill:#fb6f78;}.cls-22{fill:#ef5968;}.cls-23{fill:#ffa9b1;}.cls-24{fill:#e2a861;}.cls-25{fill:#d69c5c;}.cls-26{fill:#ffc783;}.cls-27{fill:#dd5259;}.cls-28{fill:#b7302c;}.cls-29{fill:#47ba93;}.cls-30{fill:#31936e;}.cls-31{fill:#ce7ab7;}.cls-32{fill:#ab5184;}.cls-33{fill:#5a6bcc;}.cls-34{fill:#4658a5;}.cls-35{fill:#3eaf50;}.cls-36{fill:#2e8737;}.cls-37{fill:#3d83b2;}.cls-38{fill:#4894d3;}.cls-39{fill:#d6a630;}.cls-40{fill:#eacd3b;}.cls-41{fill:#383838;opacity:0.2;}.cls-42{fill:#fbc275;}.cls-43{fill:#257269;}.cls-44{fill:#edebe6;}.cls-45{fill:#7cc7bf;}.cls-46{fill:#a8e5dc;}.cls-47{fill:#ffd5c7;}.cls-48{opacity:0.17;}.cls-49{fill:#0a6f7f;}.cls-50{fill:#49a5ba;}.cls-51{fill:#3a9aaa;}.cls-52{fill:#248daa;}.cls-53{fill:#43a8bf;}.cls-103,.cls-54{opacity:0.14;}.cls-121,.cls-55{opacity:0.21;}.cls-56,.cls-57{fill:#12849f;}.cls-128,.cls-56{opacity:0.28;}.cls-118,.cls-57{opacity:0.33;}.cls-58{opacity:0.29;}.cls-59{fill:#ededc5;}.cls-60{fill:#d86056;}.cls-61{fill:#a03732;}.cls-62{fill:#d3dae5;}.cls-63{fill:#c66460;}.cls-64{opacity:0.22;}.cls-65{fill:#269993;}.cls-66{fill:#e4a78e;}.cls-67{fill:#fcc8b4;}.cls-68{fill:#906454;}.cls-69{fill:#ffc6c5;}.cls-70{fill:#f9feff;}.cls-71{fill:#602220;}.cls-72{fill:#461d14;}.cls-73{fill:#fefffe;}.cls-74{fill:#c68c75;}.cls-75{fill:#e25454;}.cls-76{fill:#f4d0d0;}.cls-77{fill:#c13636;}.cls-78{fill:#5b0000;}.cls-79{fill:#d36553;}.cls-80{fill:#d89882;}.cls-81{fill:#ffaee0;}.cls-82{fill:#914b3d;}.cls-83{fill:#e8677a;}.cls-84{fill:#aa6e6b;}.cls-85{fill:#fbd3c7;}.cls-86{fill:#ceeaea;}.cls-87{fill:#def8f9;}.cls-88{fill:#f3feff;}.cls-89{fill:#4a65d3;}.cls-90{fill:#617fe0;}.cls-91{fill:#e4a68d;}.cls-92{fill:#ffc0c0;}.cls-93{fill:#630900;}.cls-94{fill:#773220;}.cls-95{fill:#63190d;}.cls-96{fill:#fbb03b;}.cls-97{fill:#cc445e;}.cls-98{fill:#566fc1;}.cls-99{fill:#b5b5b5;}.cls-100{fill:#f7f7f7;}.cls-101{fill:#c3dbe5;}.cls-102{fill:#d6d6d6;}.cls-104{fill:#6f7293;}.cls-105{fill:#ed4a98;}.cls-106{fill:#f9f9f9;}.cls-107{fill:#7aa1c1;}.cls-108{fill:#e55e5e;}.cls-109{opacity:0.32;}.cls-110{fill:#c63030;}.cls-111{fill:#c67456;}.cls-112{fill:#9b4734;}.cls-113{fill:#701608;}.cls-114{fill:#dd7868;}.cls-115{fill:#447fa0;}.cls-116{fill:#665c57;}.cls-117{fill:#fca800;}.cls-119{fill:#7c716c;}.cls-120{fill:#fac7b3;}.cls-122{fill:#dd7936;}.cls-123{fill:#934200;}.cls-124{fill:#514742;}.cls-125{opacity:0.23;}.cls-126{fill:#ededed;}.cls-127{fill:#c9c9c9;}.cls-129{fill:#efefef;}.cls-130{opacity:0.15;}.cls-131{fill:#ffc19f;}.cls-132{fill:#6db98f;}.cls-133{fill:#5a9b63;}.cls-134{fill:#daecef;}.cls-135{fill:#a07320;}.cls-136{fill:#a0aaf7;}.cls-137{fill:#8d8cdd;}.cls-138{fill:#a34876;}.cls-139{fill:#e2e2e2;}.cls-140{fill:#afafaf;}.cls-141{fill:#8c8c8c;}.cls-142{fill:#c6c6c6;}.cls-143{fill:#bababa;}.cls-144{fill:#b7b7b7;}</style></defs><title>Asset 2</title><g id="Layer_2" data-name="Layer 2"><g id="Layer_5" data-name="Layer 5"><polygon class="cls-1" points="30.2 13.8 29.16 13.64 29.84 12.71 30.2 13.8"/><polygon class="cls-1" points="21.19 10.8 20.16 9.74 21.74 9.24 21.19 10.8"/><polygon class="cls-1" points="22.45 12.85 21.42 11.78 22.8 11.35 22.45 12.85"/><polygon class="cls-1" points="23.5 13.29 22.29 12.69 23.56 12.02 23.5 13.29"/><polygon class="cls-1" points="24.74 13.29 23.22 13.29 24.23 12.1 24.74 13.29"/><polygon class="cls-1" points="25.8 13.07 24.41 13.07 25.18 12.02 25.8 13.07"/><polygon class="cls-1" points="26.75 12.96 25.55 12.96 26.29 11.91 26.75 12.96"/><polygon class="cls-1" points="27.8 13.25 26.51 13.03 27.4 12.06 27.8 13.25"/><polygon class="cls-1" points="28.68 13.58 27.41 13.33 28.27 12.39 28.68 13.58"/><polygon class="cls-1" points="29.48 13.53 28.44 13.37 29.12 12.43 29.48 13.53"/><polygon class="cls-1" points="21.76 11.78 20.88 10.6 22.4 10.52 21.76 11.78"/><path class="cls-2" d="M18.36,14.26a1.37,1.37,0,0,0-.77-.13,1.17,1.17,0,0,0-.89,1l.42-.27c-.11.16-.2.5-.1.61a.79.79,0,0,1,.34-.4.8.8,0,0,0,0,.59,2.23,2.23,0,0,1,.2-.41A.42.42,0,0,1,18,15a1.28,1.28,0,0,1,.51.22,2.16,2.16,0,0,0,1,.43c.37,0,1.37-.31,1.3-.93a.65.65,0,0,0-.63-.6c-.17,0-.92.39-1.12.37A2.67,2.67,0,0,1,18.36,14.26Z"/><path class="cls-2" d="M25,16.26c.07.39-.45,1-.69,1.32s-.43.54-.39.86c.29,1.32.58,1.53.41,2.2a7.7,7.7,0,0,1-1.73.27c-.28,0-1.36-.23-.88-.88.09-.13.83-.36.92-.63a.9.9,0,0,0-.58-.84,2.84,2.84,0,0,1,.45-2.73C22.67,15.5,24.65,14.44,25,16.26Z"/><path class="cls-3" d="M21.75,20.33a1.28,1.28,0,0,0-.68.27.77.77,0,0,1,.56-.56C21.8,20,21.86,20.3,21.75,20.33Z"/><path class="cls-3" d="M22.07,20.62a2,2,0,0,0-.69.41.77.77,0,0,1,.48-.67C22.12,20.28,22.17,20.59,22.07,20.62Z"/><path class="cls-3" d="M22.51,20.83a1.41,1.41,0,0,0-.49.4.52.52,0,0,1,.27-.6C22.5,20.55,22.6,20.76,22.51,20.83Z"/><path class="cls-4" d="M32,13a9.2,9.2,0,0,1-3.57.18,9.77,9.77,0,0,0-3.5-.34,9.61,9.61,0,0,1-1.9.09c-.77-.08-2-2.85-2.45-3.37a3.05,3.05,0,0,0-2.07-.38c-.48.11-.87.46-1.34.59-1,.29-2.65-.26-2.64,1.33A2.06,2.06,0,0,0,17,13.14a2.39,2.39,0,0,1,2.68,1.73A5.74,5.74,0,0,0,24,18.38c2.21.18,3.55-1.85,4.32-2.18,1.46-.63,3.27-.68,4.44-1.57s2.14-1.82,3.58-1.82C34.89,12,33.25,12.56,32,13Z"/><path class="cls-5" d="M25.12,18.22a1.14,1.14,0,0,0-.36-1.1,7.09,7.09,0,0,1-5-2.86,1.53,1.53,0,0,0-.77-.53,3,3,0,0,1,.7,1.14A5.28,5.28,0,0,0,24,18.42,2.75,2.75,0,0,0,25.12,18.22Z"/><path class="cls-4" d="M19.52,15.76a1.38,1.38,0,0,0-.83,0A1.24,1.24,0,0,0,18,17l.38-.37c-.08.19-.09.56,0,.65a.8.8,0,0,1,.27-.49.84.84,0,0,0,.13.62A2.25,2.25,0,0,1,18.9,17a.45.45,0,0,1,.4-.33,1.29,1.29,0,0,1,.58.12A2.37,2.37,0,0,0,21,17c.39-.06,1.36-.63,1.14-1.25a.69.69,0,0,0-.79-.49c-.18,0-.87.62-1.08.64A2.68,2.68,0,0,1,19.52,15.76Z"/><path class="cls-4" d="M27.52,16c.08.48-.54,1.2-.83,1.6a1.71,1.71,0,0,0-.48,1c.36,1.59.71,1.84.51,2.66a10.56,10.56,0,0,1-2.09.32c-.34,0-1.65-.28-1.06-1.07.11-.15,1-.43,1.1-.75a1.08,1.08,0,0,0-.7-1,3.42,3.42,0,0,1,.54-3.29C24.76,15.09,27.16,13.8,27.52,16Z"/><path class="cls-6" d="M19.45,10.88a.54.54,0,1,1-.14-.74A.54.54,0,0,1,19.45,10.88Z"/><path class="cls-7" d="M19.21,10.84a.39.39,0,1,1-.65-.44.39.39,0,0,1,.55-.1A.4.4,0,0,1,19.21,10.84Z"/><path class="cls-8" d="M19.25,10.7a.12.12,0,1,1,0-.16A.11.11,0,0,1,19.25,10.7Z"/><path class="cls-9" d="M18.21,11.51a4.1,4.1,0,0,1-3.35.76C16.18,12.67,18,12.25,18.21,11.51Z"/><path class="cls-3" d="M23.67,20.92a1.5,1.5,0,0,0-.83.33.93.93,0,0,1,.67-.68C23.72,20.51,23.79,20.88,23.67,20.92Z"/><path class="cls-3" d="M24.05,21.27a2.31,2.31,0,0,0-.84.5.94.94,0,0,1,.58-.82C24.1,20.86,24.17,21.23,24.05,21.27Z"/><path class="cls-3" d="M24.57,21.52A1.65,1.65,0,0,0,24,22a.6.6,0,0,1,.33-.72C24.57,21.19,24.68,21.44,24.57,21.52Z"/><path class="cls-10" d="M24.11,13.52c0-.18-.08-.38-.11-.61l-.4,0a1.22,1.22,0,0,0,0,.34c.09.36.55.89.36,1.31C24.28,14.27,24.21,13.94,24.11,13.52Z"/><path class="cls-10" d="M26.15,13.24c.06.35.39.84.22,1.27a1.31,1.31,0,0,0,.14-1.07c0-.18,0-.39-.05-.63l-.31,0A1.68,1.68,0,0,0,26.15,13.24Z"/><path class="cls-10" d="M24.83,15.16a2.1,2.1,0,0,0,.11-1.23,8.12,8.12,0,0,1-.23-1.09l-.33,0a2.44,2.44,0,0,0,.09.83C24.6,14.12,24.7,14.59,24.83,15.16Z"/><path class="cls-10" d="M25.47,13.38A5.72,5.72,0,0,1,25.66,15a3.53,3.53,0,0,0,.12-1.9c0-.13-.08-.23-.11-.33h-.29A2,2,0,0,0,25.47,13.38Z"/><path class="cls-9" d="M15.65,10.42s-.1,0-.17,0-.13.1-.11.14.1,0,.17,0S15.67,10.46,15.65,10.42Z"/><path class="cls-11" d="M14.69,21.31c0,.54-1.8.94-4,.9s-4-.49-4-1,1.8-.94,4-.9S14.7,20.78,14.69,21.31Z"/><path class="cls-12" d="M14.15.29,11.79,0,10,14.11h0l-.09.73h.12a5.56,5.56,0,0,0,2.33-.41l.11-.87h0Z"/><path class="cls-13" d="M12.37,11.82l-.59-.08s0,0,0-.05a0,0,0,0,1,0,0l.59.07a0,0,0,0,1,0,0S12.39,11.82,12.37,11.82Z"/><path class="cls-13" d="M12.41,11.47l-.59-.07a.07.07,0,0,1,0-.05.05.05,0,0,1,.05,0l.59.07a.05.05,0,0,1,0,0S12.44,11.47,12.41,11.47Z"/><path class="cls-13" d="M12.46,11.12l-.6-.07a0,0,0,0,1,0-.05,0,0,0,0,1,.05,0l.59.08a0,0,0,0,1,0,0S12.48,11.13,12.46,11.12Z"/><path class="cls-13" d="M12.24,12.86l-.59-.08s0,0,0,0a0,0,0,0,1,.05,0l.59.07s0,0,0,.05S12.26,12.86,12.24,12.86Z"/><path class="cls-13" d="M12.28,12.51l-.94-.12a0,0,0,1,1,0-.08l.93.11s.05,0,0,.05S12.31,12.51,12.28,12.51Z"/><path class="cls-13" d="M12.33,12.16l-.6-.07a0,0,0,0,1,0-.05,0,0,0,0,1,.05,0l.59.08a0,0,0,0,1,0,0S12.35,12.17,12.33,12.16Z"/><path class="cls-13" d="M12.15,13.55l-.59-.07a.07.07,0,0,1,0-.05.05.05,0,0,1,.05,0l.59.07s.05,0,0,0S12.18,13.55,12.15,13.55Z"/><path class="cls-13" d="M12.2,13.2l-.6-.07a0,0,0,0,1,0-.05,0,0,0,0,1,0,0l.59.08a0,0,0,0,1,0,0S12.22,13.21,12.2,13.2Z"/><path class="cls-13" d="M12,14.59l-.59-.07a.07.07,0,0,1,0,0,.05.05,0,0,1,0,0l.59.07s.05,0,0,.05S12.05,14.59,12,14.59Z"/><path class="cls-13" d="M12.07,14.24l-.94-.11a.05.05,0,0,1,0-.05s0,0,.05,0l.94.12a0,0,0,0,1,0,0S12.09,14.25,12.07,14.24Z"/><path class="cls-13" d="M12.11,13.9l-.59-.08s0,0,0-.05a0,0,0,0,1,0,0l.59.07s0,0,0,0S12.13,13.9,12.11,13.9Z"/><path class="cls-13" d="M12.8,8.35l-.59-.07a.07.07,0,0,1,0,0,.05.05,0,0,1,.05,0l.59.07a.05.05,0,0,1,0,.05S12.83,8.35,12.8,8.35Z"/><path class="cls-13" d="M12.85,8l-.6-.07a0,0,0,0,1,0,0,0,0,0,0,1,0,0l.6.08s0,0,0,0S12.87,8,12.85,8Z"/><path class="cls-13" d="M12.89,7.66l-.59-.08s0,0,0,0a0,0,0,0,1,.05,0l.59.07a0,0,0,0,1,0,0A.07.07,0,0,1,12.89,7.66Z"/><path class="cls-13" d="M12.67,9.39l-.59-.07a.07.07,0,0,1,0-.05.05.05,0,0,1,.05,0l.59.07a.05.05,0,0,1,0,0S12.7,9.39,12.67,9.39Z"/><path class="cls-13" d="M12.72,9l-.94-.11a.05.05,0,0,1,0,0s0,0,0,0l.94.12s0,0,0,0S12.74,9.05,12.72,9Z"/><path class="cls-13" d="M12.76,8.7l-.59-.08s0,0,0,0a0,0,0,0,1,0,0l.59.07a0,0,0,0,1,0,.05S12.78,8.7,12.76,8.7Z"/><path class="cls-13" d="M12.59,10.08,12,10a0,0,0,0,1,0,0,0,0,0,0,1,0,0l.6.08s0,0,0,0S12.61,10.09,12.59,10.08Z"/><path class="cls-13" d="M12.63,9.74,12,9.66s0,0,0-.05a0,0,0,0,1,.05,0l.59.07a0,0,0,0,1,0,0S12.65,9.74,12.63,9.74Z"/><path class="cls-13" d="M12.5,10.78l-.94-.12s0,0,0-.05a.07.07,0,0,1,.05,0l.94.12a0,0,0,0,1,0,.05S12.52,10.78,12.5,10.78Z"/><path class="cls-13" d="M12.54,10.43,12,10.36a.07.07,0,0,1,0,0,.05.05,0,0,1,.05,0l.59.07a.05.05,0,0,1,0,.05S12.57,10.43,12.54,10.43Z"/><path class="cls-13" d="M13.24,4.88l-.6-.07a0,0,0,0,1,0,0,0,0,0,0,1,0,0l.6.08s0,0,0,0S13.26,4.89,13.24,4.88Z"/><path class="cls-13" d="M13.28,4.54l-.59-.08s0,0,0,0a0,0,0,0,1,0,0l.59.07a0,0,0,0,1,0,0A.07.07,0,0,1,13.28,4.54Z"/><path class="cls-13" d="M13.32,4.19l-.59-.07a.07.07,0,0,1,0,0s0,0,.05,0l.59.07a.05.05,0,0,1,0,.05S13.35,4.19,13.32,4.19Z"/><path class="cls-13" d="M13.11,5.92l-.6-.07a0,0,0,0,1,0,0,0,0,0,0,1,0,0l.6.08s0,0,0,0S13.13,5.93,13.11,5.92Z"/><path class="cls-13" d="M13.15,5.58l-.94-.12s0,0,0,0,0,0,.05,0l.94.12a0,0,0,0,1,0,0A.07.07,0,0,1,13.15,5.58Z"/><path class="cls-13" d="M13.19,5.23l-.59-.07a.07.07,0,0,1,0,0s0,0,0,0l.59.07a.05.05,0,0,1,0,.05S13.22,5.23,13.19,5.23Z"/><path class="cls-13" d="M13,6.62l-.59-.08s0,0,0,0a0,0,0,0,1,0,0l.59.07a0,0,0,0,1,0,0A.07.07,0,0,1,13,6.62Z"/><path class="cls-13" d="M13.06,6.27l-.59-.07a.07.07,0,0,1,0,0,.05.05,0,0,1,.05,0l.59.07a.05.05,0,0,1,0,.05S13.09,6.27,13.06,6.27Z"/><path class="cls-13" d="M12.93,7.31,12,7.19a0,0,0,0,1,0-.05s0,0,0,0l.94.11a.05.05,0,0,1,0,0S13,7.31,12.93,7.31Z"/><path class="cls-13" d="M13,7l-.6-.07a0,0,0,0,1,0,0,0,0,0,0,1,0,0l.6.08s0,0,0,0S13,7,13,7Z"/><path class="cls-13" d="M13.67,1.42l-.59-.08s-.05,0,0-.05a0,0,0,0,1,.05,0l.59.07a0,0,0,0,1,0,0A.07.07,0,0,1,13.67,1.42Z"/><path class="cls-13" d="M13.71,1.07,13.12,1a.05.05,0,0,1,0-.05s0,0,.05,0l.59.07a.05.05,0,0,1,0,.05S13.73,1.07,13.71,1.07Z"/><path class="cls-13" d="M13.75.72,13.16.65s0,0,0-.05a.07.07,0,0,1,.05,0l.6.08s0,0,0,0S13.78.73,13.75.72Z"/><path class="cls-13" d="M13.54,2.46,13,2.38s0,0,0,0a0,0,0,0,1,.05,0l.59.07a0,0,0,0,1,0,0A.07.07,0,0,1,13.54,2.46Z"/><path class="cls-13" d="M13.58,2.11,12.64,2a0,0,0,0,1,0-.05s0,0,.05,0l.94.11a.05.05,0,0,1,0,0S13.61,2.11,13.58,2.11Z"/><path class="cls-13" d="M13.62,1.76,13,1.69s0,0,0-.05a.07.07,0,0,1,0,0l.6.08s0,0,0,0S13.65,1.77,13.62,1.76Z"/><path class="cls-13" d="M13.45,3.15l-.59-.07a.07.07,0,0,1,0-.05s0,0,0,0l.59.07a.05.05,0,0,1,0,0S13.48,3.15,13.45,3.15Z"/><path class="cls-13" d="M13.49,2.8l-.59-.07s0,0,0,0a.07.07,0,0,1,.05,0l.6.08s0,0,0,0S13.52,2.81,13.49,2.8Z"/><path class="cls-13" d="M13.36,3.84l-.93-.11a.05.05,0,0,1,0,0s0,0,0,0l.94.12s0,0,0,0S13.39,3.85,13.36,3.84Z"/><path class="cls-13" d="M13.41,3.5l-.59-.08s0,0,0,0a0,0,0,0,1,.05,0l.59.07a0,0,0,0,1,0,0A.07.07,0,0,1,13.41,3.5Z"/><polygon class="cls-14" points="8.2 8.13 9.03 8.1 8.58 6.33 8.2 8.13"/><polygon class="cls-15" points="8.46 6.8 8.72 6.8 8.58 6.3 8.46 6.8"/><path class="cls-16" d="M8.19,8,8.39,8h.37L9,8l.18,6.87a6.78,6.78,0,0,1-.86-.12Z"/><polygon class="cls-14" points="8.84 10.15 9.65 10.06 9.06 8.32 8.84 10.15"/><polygon class="cls-15" points="8.97 8.81 9.24 8.78 9.05 8.3 8.97 8.81"/><path class="cls-17" d="M8.81,10.06,9,10l.37,0,.28.05.75,6.83a5.93,5.93,0,0,1-.86-.05Z"/><polygon class="cls-14" points="6.74 10.04 7.55 9.91 6.87 8.21 6.74 10.04"/><polygon class="cls-15" points="6.81 8.7 7.07 8.66 6.86 8.19 6.81 8.7"/><path class="cls-18" d="M6.71,10l.19-.12.37-.05.28,0,1.09,6.79a6.81,6.81,0,0,1-.86,0Z"/><polygon class="cls-14" points="9.97 8.62 10.79 8.66 10.47 6.85 9.97 8.62"/><polygon class="cls-15" points="10.32 7.32 10.58 7.33 10.47 6.83 10.32 7.32"/><path class="cls-19" d="M10,8.53l.21-.07.37,0,.27.09-.31,6.28c-.42,0-.85,0-.85,0Z"/><polygon class="cls-14" points="11.24 8.86 12.06 8.9 11.75 7.09 11.24 8.86"/><polygon class="cls-15" points="11.59 7.56 11.86 7.57 11.75 7.07 11.59 7.56"/><path class="cls-20" d="M11.23,8.77l.21-.07.37,0,.27.09-.3,6.28a8.24,8.24,0,0,1-.85,0Z"/><path class="cls-21" d="M13.08,13.89h-6V21s5.93,0,6,0Z"/><path class="cls-22" d="M13.26,13.89H6.88v1.54h6.38Z"/><path class="cls-23" d="M8.84,17a.24.24,0,0,0,.23-.23.23.23,0,0,0-.23-.23.23.23,0,0,0-.23.23A.23.23,0,0,0,8.84,17Zm2.32.69a.64.64,0,1,0,.64.64A.64.64,0,0,0,11.16,17.7ZM8,17.94a.26.26,0,0,0-.26.26.26.26,0,0,0,.52,0A.26.26,0,0,0,8,17.94Zm4.34-2.39a.72.72,0,1,0,.72.72A.71.71,0,0,0,12.33,15.55ZM9.13,18.4a.64.64,0,1,0,.63.64A.64.64,0,0,0,9.13,18.4Zm3.12.84a.15.15,0,0,0,0,.3.15.15,0,0,0,0-.3Z"/><polygon class="cls-24" points="7.33 54.78 0 54.78 0 22.17 5.06 20.61 7.33 54.78"/><rect class="cls-25" x="5.42" y="21.12" width="47.51" height="33.26"/><path class="cls-26" d="M4.94,20.64V54.86H53.4V20.64ZM52.45,38.28H29.71V21.6H52.45ZM28.75,21.6V38.28H5.9V21.6ZM5.9,39.23H28.75V53.9H5.9ZM29.71,53.9V39.23H52.45V53.9Z"/><rect class="cls-27" x="18.13" y="25.04" width="1.94" height="13.1" transform="translate(-4.7 3.38) rotate(-9)"/><path class="cls-28" d="M18.91,36.56l1.91-.3-.31-2-1.92.3Zm-1.42-9,.11.72,1.91-.3-.11-.72Z"/><rect class="cls-27" x="20.21" y="26.37" width="3.14" height="11.77" transform="matrix(0.99, -0.16, 0.16, 0.99, -4.95, 3.97)"/><path class="cls-28" d="M20.94,36.84l3.1-.51-.3-1.79-3.09.51Zm-1.32-8.07.1.65,3.1-.51-.11-.65Z"/><rect class="cls-29" x="6.05" y="24.82" width="3.91" height="13.4"/><path class="cls-30" d="M6.05,27.21V28H10v-.74Zm0,8.78H10v-.74H6.05Z"/><rect class="cls-31" x="12.37" y="23.67" width="2.18" height="14.54"/><path class="cls-32" d="M12.37,26.27v.81h2.18v-.81Zm0,9.53h2.18V35H12.37Z"/><rect class="cls-33" x="9.9" y="23.01" width="2.51" height="15.21"/><path class="cls-34" d="M9.9,25.72v.65h2.51v-.65Zm0,1.85h2.51v-.64H9.9Zm0,8.18h2.51v-.64H9.9Z"/><rect class="cls-29" x="14.55" y="24.06" width="2.51" height="14.12"/><path class="cls-30" d="M14.55,26.58v.6h2.51v-.6Zm0,1.71h2.51V27.7H14.55Zm0,7.6h2.51v-.6H14.55Z"/><rect class="cls-35" x="5.93" y="40.19" width="20.29" height="13.42"/><path class="cls-36" d="M19.26,43.39H13.74a.83.83,0,0,1-.83-.84.84.84,0,0,1,.83-.85h5.52a.84.84,0,0,1,.83.85A.83.83,0,0,1,19.26,43.39Z"/><polygon class="cls-37" points="33.47 38.23 29.78 38.23 29.78 24.28 30.91 23.88 33.47 38.23"/><rect class="cls-38" x="30.81" y="23.89" width="20.64" height="14.34"/><path class="cls-37" d="M44.38,27.18H38.75a.88.88,0,0,1-.84-.91.87.87,0,0,1,.84-.9h5.63a.86.86,0,0,1,.83.9A.87.87,0,0,1,44.38,27.18Z"/><polygon class="cls-39" points="34.34 53.9 29.73 53.9 29.73 41.07 31.9 40.7 34.34 53.9"/><rect class="cls-40" x="31.8" y="40.71" width="19.7" height="13.19"/><path class="cls-39" d="M44.75,43.77H39.39a.83.83,0,0,1,0-1.66h5.36a.83.83,0,0,1,0,1.66Z"/><polygon class="cls-41" points="180.6 63.14 163.75 55.92 170.72 51.77 187.34 58.55 180.6 63.14"/><path class="cls-42" d="M162.92,55.62l5.43-33.31L170,51.47l-6.25,4.47Zm4.93-23.85-3.56,21.85,4.63-2.72Z"/><path class="cls-24" d="M163.71,56l5.43-33.31,1.63,29.15Zm4.93-23.86L165.07,54l4.63-2.72Z"/><path class="cls-42" d="M179.86,63l5.55-34.06,1.66,29.81-6.39,4.57Zm5-24.39-3.64,22.34L186,58.14Z"/><path class="cls-24" d="M180.66,63.31l5.55-34.06,1.67,29.81Zm5-24.39-3.64,22.35,4.73-2.79Z"/><polygon class="cls-24" points="185.02 54.88 163.6 46.3 166.72 18.17 167.84 17.8 189.63 24.75 186.31 54.07 185.02 54.88"/><polygon class="cls-42" points="185.03 54.95 162.9 46.56 166.73 18.18 188.67 25.37 185.03 54.95"/><polygon class="cls-24" points="184.07 52.94 164.25 45.43 167.7 20.18 187.33 26.46 184.07 52.94"/><polygon class="cls-43" points="184.22 52.8 164.56 45.35 167.99 20.3 187.46 26.53 184.22 52.8"/><path class="cls-44" d="M174.78,31.56a.42.42,0,0,1-.1.25.21.21,0,0,1-.21,0l-.05.34.08,0c.2.12.36.16.47.11s.19-.19.23-.43c0,0,0-.1,0-.18s0-.19,0-.34a1.5,1.5,0,0,1,0-.22l0-.21a1,1,0,0,1,.06-.28.51.51,0,0,1,.08-.18.21.21,0,0,1,.11-.08.31.31,0,0,1,.14,0l.06-.39a.7.7,0,0,1-.18-.34,1.46,1.46,0,0,1,0-.52l0-.14,0-.17c0-.14.06-.24.08-.29a1.06,1.06,0,0,1,0-.14,2.54,2.54,0,0,0,0-.39,1.1,1.1,0,0,0-.07-.31.47.47,0,0,0-.07-.12.31.31,0,0,0-.09-.11.4.4,0,0,0-.12-.1l-.17-.12-.06,0-.05.35a.42.42,0,0,1,.18.22.71.71,0,0,1,0,.33.64.64,0,0,1,0,.15c0,.06,0,.14,0,.22a1.06,1.06,0,0,1,0,.19l0,.18a2,2,0,0,0,0,.7,1.1,1.1,0,0,0,.26.46.38.38,0,0,0-.35.12,1.2,1.2,0,0,0-.21.62,1.11,1.11,0,0,0,0,.19c0,.06,0,.12,0,.18a2.33,2.33,0,0,1,0,.29C174.79,31.47,174.78,31.53,174.78,31.56Z"/><path class="cls-44" d="M170.83,26.14c0-.13,0-.22.1-.25s.12,0,.21,0l0-.34-.08-.05c-.2-.12-.36-.16-.47-.11s-.19.19-.22.43c0,0,0,.1,0,.18s0,.2,0,.35a1.49,1.49,0,0,0,0,.21l0,.21a1.19,1.19,0,0,1-.14.47.25.25,0,0,1-.25.08l-.06.4a.66.66,0,0,1,.18.34,1.21,1.21,0,0,1,0,.51.77.77,0,0,1,0,.15l0,.16c0,.15-.06.25-.08.3l0,.14a1.21,1.21,0,0,0,0,.38A.89.89,0,0,0,170,30a.69.69,0,0,0,.16.22,1.27,1.27,0,0,0,.29.22l.06,0,0-.34a.49.49,0,0,1-.18-.23.68.68,0,0,1,0-.33.5.5,0,0,1,0-.14c0-.07,0-.14,0-.23a1.29,1.29,0,0,1,0-.19l0-.18a1.75,1.75,0,0,0,0-.7,1,1,0,0,0-.26-.45.38.38,0,0,0,.35-.13,1.29,1.29,0,0,0,.21-.62c0-.06,0-.12,0-.19s0-.12,0-.18a2.33,2.33,0,0,1,0-.29C170.82,26.23,170.83,26.17,170.83,26.14Z"/><ellipse class="cls-45" cx="93.31" cy="66.47" rx="77.56" ry="15.46"/><path class="cls-46" d="M93.31,77.63c-38.15,0-68-5.49-68-12.49s29.88-12.5,68-12.5,68,5.49,68,12.5S131.46,77.63,93.31,77.63Zm0-24.3C56.81,53.33,26,58.74,26,65.14s30.84,11.8,67.34,11.8,67.34-5.4,67.34-11.8S129.81,53.33,93.31,53.33Z"/><path class="cls-47" d="M88,45.36c-.07.07-.21.22-.91-.07-.11,0,.49.32.35.36a3.54,3.54,0,0,1-2.29-.25c-1.83-1-1.37-1.95-1.28-2.45s3-.74,3.32-.5c0,.48-1.13.56-1.09.66s.38.11.85.38c1,.6,1.7,1.14,1.32,1.28-.13,0-2-.63-2.06-.58S88,45.31,88,45.36Z"/><ellipse class="cls-48" cx="92.96" cy="59.69" rx="8.33" ry="0.91"/><path class="cls-49" d="M95.08,58.19c-.69-.06-1.45-.09-2.26-.09s-1.57,0-2.26.09H87.42v.89c0,.54,2.42,1,5.4,1s5.4-.44,5.4-1v-.89Z"/><path class="cls-50" d="M87.42,58.19c0,.54,2.42,1,5.4,1s5.4-.44,5.4-1-2.42-1-5.4-1S87.42,57.64,87.42,58.19Z"/><rect class="cls-51" x="92.21" y="54.22" width="1.17" height="2.41" transform="translate(-1.27 2.19) rotate(-1.34)"/><rect class="cls-52" x="91.66" y="55.49" width="2.33" height="2.41" transform="matrix(1, -0.02, 0.02, 1, -1.3, 2.19)"/><path class="cls-51" d="M91.49,54.61a10.4,10.4,0,0,0,3,.14,10.38,10.38,0,0,0,.94-20.52.29.29,0,0,0-.34.23L91.26,54.27A.29.29,0,0,0,91.49,54.61Zm.4-.53,3.7-19.21a9.79,9.79,0,0,1-3.7,19.21Z"/><path class="cls-53" d="M85.33,43A8.25,8.25,0,1,0,95,36.46,8.25,8.25,0,0,0,85.33,43Z"/><path class="cls-12" d="M94.47,36.44a.19.19,0,0,1,.09,0l.43.07a9.33,9.33,0,0,1,1.07.28.48.48,0,0,1,.22.2c.09.19.48.2.57.48,0,.11-.54-.07-.63,0s-.12.37-.37.56.18.26.19.48c-.28.64-1,1.31-1.1.8a3,3,0,0,0-.22-.73c-.33-.54-1.13-.52-1.19-.92,0-.21.22-.19.2-.34-.06-.41.35-.26.35-.56,0-.08-.06-.3,0-.36h.11C94.3,36.4,94.41,36.5,94.47,36.44Z"/><path class="cls-12" d="M93.19,47.35c.1-.19,1.65.36,1.2-.31-.06-.09.26-.31.47-.37s.48.06.61,0c.59-.33.67-.35,1.17-.21s.72-.32,1.13.45c.1-.11.23-.21.27-.15s.08.3.45,0,.15-.6.16-.63.5.1.51,0c0-.29-.08-.61,0-.7s.31,0,.31.07c0,.23,0,.55.29.42.53-.28.52-1.44.3-1.4a1.11,1.11,0,0,1-.48,0s-.14-.42-.29-.33-.33.82-.64.64c-.07,0,.27-1,.21-1a5.8,5.8,0,0,1-.55-.45c-.21-.23.15-.52-.3-1s-.72-.42-.94-.82c-.14-.24.72-.12.57-.31s-1.4-.5-1.44-.68.55-.23.89-1c0-.12.14.38.29.33s.06-.22.18-.3.58-.28.6-.09c.07.76.51,1.78.68,1.61s0-.29,0-.44.78,0,.7-.55S98.1,39.05,98,38.44c0-.08-.42.05-.43.24s.18.72.1.75c-.58.22-.84-.46-1-.67s.52-.12.35-.35.54-.54.36-.74a6,6,0,0,0-.82-.72,8.25,8.25,0,0,1,5,6.9c-.6,1.65-1.45,2.94-1.93,2.49-.14-.14-.26.25-.44.22a.61.61,0,0,0-.59.35c0,.08-.67.28-.66.19s-.18-.09-.3,0-.19.34-.16.4a1,1,0,0,1,0,.94c-.75.5-1,1-1.71,1.06A4.49,4.49,0,0,0,94.89,51a2.89,2.89,0,0,1-1.66.84c-.17,0,.86-.47.69-.73s-.34-.52-.43-.7a3,3,0,0,1-.13-.79c-.17-.38-.68-.27-.63-.6.14-.89-.41-1.15-.35-1.42S93.1,47.51,93.19,47.35Z"/><path class="cls-12" d="M92.44,38.09c0,.1.25.3.31.31s.61-.14.63-.25S93,38,92.82,38,92.46,38,92.44,38.09Z"/><path class="cls-12" d="M91.23,38.74s-.29-.06-.26,0,0,.13,0,.12-.12-.07-.16,0,0,0,0,.07a.35.35,0,0,1,0,.11,2.89,2.89,0,0,1-.37.27s0,.07-.07.08h-.09a.25.25,0,0,0-.08.07s0,.07,0,.11,0,0-.06,0,.05.13.1.14.2,0,.29.06.18.11.19.11,0-.08,0-.2,0-.13,0-.19,0-.05,0-.09a.06.06,0,0,1,0-.07c0-.09.14-.07.21-.11a2.33,2.33,0,0,0,.23-.19s.24-.11.27-.14S91.23,38.75,91.23,38.74Z"/><path class="cls-12" d="M91,39.68c.06.07.26.1.26.07,0-.24.19-.29.13-.36s-.12-.24-.26-.19-.21.06-.18.11-.07.21-.09.23S90.93,39.62,91,39.68Z"/><path class="cls-12" d="M86.31,40.39a8.11,8.11,0,0,0-1,2.61c0,.21-.07.42-.09.62a.15.15,0,0,0,.09.06c.19,0,.45-1,.86-1.84.09.11.25.23.19.37a9.33,9.33,0,0,0-.62,2.56c0,.75.46,1.22.52,1.77a3.24,3.24,0,0,0,2.24,2.21s-.36-.16-.47-1.22c0-.24-.36-.5-.34-.77.05-.55-.09-1.28.26-1.31.06-.06.32-.14.38-.09.53.44,1,.09,1.17.48s1-.67,1.16-1-.05-.18-.05-.41c0-.47.17-.31.18-.49,0-.48-.35-.81-.55-1.23s-.06-.48-.42-.71a3.36,3.36,0,0,0-1.42-.67c-.22,0,0,.23-.22.42-.17,0-.59.26-.77.3s.2-.42-.12-.42c-.47.32-.81,0-1,0a3.53,3.53,0,0,1,.38-.57c.17-.06.35.19.46,0s.21-.18.18-.33.13-.18.19-.17c.09.26-.16.61-.12.6.31-.06.51-.68.57-.7a2.68,2.68,0,0,0,.66-.37l.12.08c-.49.48-.62.3-.7.55,0,0,0,.28,0,.28.14-.27.66-.4.91-.68,0,0,.08.2.15.21s.4-.08.4.43c0,.05.2.09,0,.28-.06.06.41.48.54.4s.24,0,.42-.12-.06-.37.26-.74a.9.9,0,0,0-.76-.14c-.11,0,.1-.32.06-.38.47,0,.56-.25.49-.27s-.51,0-.56-.51c0-.27-.32-.34-.26-.38s.35-.22.17-.34a.94.94,0,0,1-.46.25c-.25,0-.25-.16-.3-.16s-.07.08-.19,0,.31-.4.3-.49-.34-.08-.11-.24.23,0,.32,0,.38-.52.42-.6.21-.16.25,0-.06.17-.08.2-.07.42-.18.43a.76.76,0,0,0-.48.51c0,.14.17.25.22.16a1.2,1.2,0,0,1,.49-.37c.07,0,.2.15.24.19s.56-.28.38-.62a.61.61,0,0,1,.08-.63.47.47,0,0,0,.11-.37c0-.07-.3-.15-.4,0s-.21,0-.33,0l-.44.22,0,0c-.07.08,0,.3-.37.34,0-.06.09-.12.13-.16a.46.46,0,0,0,.07-.07,0,0,0,0,0,0,0A8.33,8.33,0,0,0,87,39.38a.49.49,0,0,0,.15.27A4.61,4.61,0,0,0,86.31,40.39Zm1-.63a.63.63,0,0,0,.29.08c-.1.2-.07.72-.42.6a.31.31,0,0,1-.09-.07s-.1,0-.22,0C86.84,40.25,87.11,40,87.29,39.76Z"/><path class="cls-12" d="M97.83,45.44a.62.62,0,0,0,.39.11c.14,0,.14-.16.32-.21s.49.16.48,0-.32-.27-.64-.14S97.83,45.37,97.83,45.44Z"/><path class="cls-12" d="M97.12,45.52c0,.07.13.1.27.12a.34.34,0,0,0,.34-.19c0-.07-.14-.1-.29-.08S97.13,45.44,97.12,45.52Z"/><path class="cls-12" d="M95.78,41.31c0,.12.26,0,.42,0s.33.12.35,0-.2-.39-.36-.39A.42.42,0,0,0,95.78,41.31Z"/><path class="cls-54" d="M88.89,39.25a2.6,2.6,0,1,0,2.56-2.64A2.6,2.6,0,0,0,88.89,39.25Z"/><path class="cls-55" d="M90.67,42.6a.46.46,0,0,0,.46.46.47.47,0,0,0,.46-.47.47.47,0,0,0-.47-.45A.45.45,0,0,0,90.67,42.6Z"/><path class="cls-56" d="M95.61,50.52a1.28,1.28,0,1,0,1.26-1.3A1.28,1.28,0,0,0,95.61,50.52Z"/><path class="cls-56" d="M97.35,48.9a.4.4,0,0,0,.41.4.4.4,0,0,0,.39-.41.39.39,0,0,0-.4-.39A.39.39,0,0,0,97.35,48.9Z"/><path class="cls-57" d="M98.75,48.51a.26.26,0,0,0,.52,0,.25.25,0,0,0-.26-.25A.26.26,0,0,0,98.75,48.51Z"/><path class="cls-55" d="M91.9,41.06a.37.37,0,0,0,.37.36.35.35,0,0,0,.35-.37.34.34,0,0,0-.36-.35A.36.36,0,0,0,91.9,41.06Z"/><path class="cls-58" d="M85.23,44.71A.8.8,0,1,0,86,43.9.79.79,0,0,0,85.23,44.71Z"/><path class="cls-48" d="M66.66,58.1c0,.56,3.91,1,8.73,1s8.72-.46,8.72-1-3.9-1-8.72-1S66.66,57.54,66.66,58.1Z"/><path class="cls-47" d="M80,56.39c0,.32-2,.2-2.06-.12-.09-2.27-.14-5.2-.29-5.72-.3-1-2.73-4.37-4.56-5l3.43-2c1.19.29,3.53,4.74,3.87,5.5C80.8,50,80,56.05,80,56.39Z"/><path class="cls-59" d="M77.71,55.71c0-.47-.08-1.08-.1-1.46L81,54.09A13.56,13.56,0,0,0,80.59,56C80.35,56.89,78,56.5,77.71,55.71Z"/><path class="cls-47" d="M70.8,56.51c-.16.28-2-.61-1.85-.91.79-2.13,1.89-4.85,2-5.38.11-1-1-4.53-2-6.36l3.64-.55c1,.73,1.41,5.75,1.43,6.58C74,50.93,71,56.21,70.8,56.51Z"/><path class="cls-59" d="M68.72,55.58c.09-.55.2-1.27.28-1.71l3.3.6a18.57,18.57,0,0,0-.85,2.13C71,57.55,68.83,56.57,68.72,55.58Z"/><path class="cls-60" d="M72.26,56.3c0-.17-.07-.39-.1-.59s-1.37-.4-1.44-.07c0,.09,0,.16,0,.23L70,55.71a11.81,11.81,0,0,1-1.42-.41c-.13.52-.26,1.43-.4,2,0,0,5.76,2.32,6.87,1.64C75.32,58.75,74,57.36,72.26,56.3Z"/><path class="cls-61" d="M68.21,56.94c0,.13,0,.25-.08.36s5.76,2.32,6.87,1.64c0,0,.06-.08,0-.15C73.32,58.82,69.65,57.49,68.21,56.94Z"/><path class="cls-61" d="M73.87,57.45h-.1a1.27,1.27,0,0,0-1.28,1.24s0,.05,0,.07a4.35,4.35,0,0,0,2.5.18C75.21,58.82,74.73,58.18,73.87,57.45Z"/><path class="cls-62" d="M72.64,56.55a.08.08,0,0,0,.11,0,.08.08,0,0,0,0-.11,1,1,0,0,0-1.06.2.08.08,0,0,0,0,.12l0,0a.08.08,0,0,0,.08,0A.87.87,0,0,1,72.64,56.55Zm.42.3a.09.09,0,0,0,.11-.05.09.09,0,0,0-.06-.11,1.21,1.21,0,0,0-1.07.17A.11.11,0,0,0,72,57l0,0a.08.08,0,0,0,.07,0A1,1,0,0,1,73.06,56.85Zm.49.17a1.32,1.32,0,0,0-1.11.16.08.08,0,0,0,0,.12.05.05,0,0,0,0,0,.06.06,0,0,0,.07,0,1.1,1.1,0,0,1,.95-.14.09.09,0,1,0,.06-.16Z"/><path class="cls-63" d="M70.39,40.44c-1.82,1.84-1.74,2.85-1.43,8.75a33.8,33.8,0,0,0,5.42.34c-.14-1-.22-1.91-.29-2.52.69-.07,1.21,1.35,1.92,2.69a9.35,9.35,0,0,0,4.09-1.62c-.36-.75-1.92-3.8-2.6-5.2Z"/><path class="cls-64" d="M78.67,45.38c-6,1.68-9.33-1.39-9.57-2.83.72-.85,2-3.09,2.88-4.14,1.84.49,4.72,3.89,6.33,4.72C78.07,43.92,78.63,45.08,78.67,45.38Z"/><path class="cls-47" d="M85.23,42.9c.21.34-.5,1.25-1,1.49-4.18-1-5.92-4-7.16-6.16,1-.53,1.86-1.08,2.8-1.64C81.44,41,82.69,41.62,85.23,42.9Z"/><path class="cls-65" d="M82.3,39.72c-.33-.78-1.26-2.34-2.17-4-1,.23-.91,1.08-1.9,1.37a30.25,30.25,0,0,0,.62,3.72C79.75,41.41,81.9,39.94,82.3,39.72Z"/><path class="cls-65" d="M78.48,44.27a7.54,7.54,0,0,1-5.89.57c-3.08-1.1-3.08-1.82-3.66-2.45.52-1.84,2.31-6.59,5.9-8a19.7,19.7,0,0,1,5.27,1.34A76.43,76.43,0,0,0,78.48,44.27Z"/><path class="cls-66" d="M77.24,33.19l-.83,1.9c-.17.41.33,1,1.12,1.36s1.59.3,1.76-.11l.83-1.9Z"/><path class="cls-60" d="M81.35,55.8c0-.16-.14-.37-.21-.56s-1.42-.11-1.43.22c0,.09,0,.16,0,.23H79a12.12,12.12,0,0,1-1.47-.13c0,.54,0,1.45,0,2.05,0,0,6.1,1.14,7.06.26C84.83,57.61,83.3,56.5,81.35,55.8Z"/><path class="cls-61" d="M77.5,57.22v.38s6.1,1.14,7.06.26c0,0,0-.09,0-.16C82.89,58.07,79,57.48,77.5,57.22Z"/><path class="cls-61" d="M83.16,56.62l-.11,0a1.26,1.26,0,0,0-1,1.47.14.14,0,0,0,0,.06,4.39,4.39,0,0,0,2.49-.31C84.74,57.69,84.14,57.16,83.16,56.62Z"/><path class="cls-62" d="M81.77,56a.08.08,0,0,0,.1-.06.08.08,0,0,0-.06-.1,1,1,0,0,0-1,.4.08.08,0,0,0,0,.12h.05a.09.09,0,0,0,.07,0A.87.87,0,0,1,81.77,56Zm.47.22a.09.09,0,0,0,.1-.08.09.09,0,0,0-.08-.09,1.16,1.16,0,0,0-1,.38.09.09,0,0,0,0,.12.07.07,0,0,0,.06,0,0,0,0,0,0,.06,0A1,1,0,0,1,82.24,56.19Zm.52.07a1.31,1.31,0,0,0-1.06.37.09.09,0,0,0,0,.12.07.07,0,0,0,.12,0,1.14,1.14,0,0,1,.91-.33.08.08,0,0,0,.1-.06S82.8,56.26,82.76,56.26Z"/><path class="cls-47" d="M76.88,44c-.41.41.32,1.25,0,1.69-4.75-1.73-5-6.11-5-8,0-1.3,1.31-1.85,2.65-1.36C74.44,39.77,74.18,41.85,76.88,44Z"/><path class="cls-47" d="M80.19,46.57c-.08.07-.21.22-.91-.07-.12,0,.49.31.34.35a3.6,3.6,0,0,1-2.29-.24c-1.82-1-1.37-2-1.28-2.46s3-.74,3.33-.49c0,.48-1.14.55-1.09.66s.37.11.85.38c1,.59,1.7,1.14,1.31,1.28-.13.05-2-.64-2-.58S80.24,46.52,80.19,46.57Z"/><path class="cls-64" d="M75.62,39.49c-1.68.86-4,.22-4.41-.59.32-1.19.67-2.5,3.24-2.73C74.94,36.57,75.62,39.49,75.62,39.49Z"/><path class="cls-65" d="M75.15,39.17c-1.52.61-3.85-.23-4-.68.55-2,1.22-4.34,3.7-4.12C75.1,34.61,75.15,39.17,75.15,39.17Z"/><path class="cls-67" d="M90.22,29.48c-.47,2.1-1.82,3.5-2.76,3.36s-1-1.84-.73-3.85S88,25.44,89,25.59C90.25,25.78,90.66,27.5,90.22,29.48Z"/><path class="cls-66" d="M88.85,30.38c-.38.79-1,1.19-1.49.88s-.48-1.21-.1-2,1-1.19,1.49-.88S89.23,29.58,88.85,30.38Z"/><path class="cls-68" d="M88.83,24.2c-.92,6.62-5.46,9-11.24,8.22s-9.62-4.36-8.7-11S74.26,13.88,80,14.68,89.74,17.59,88.83,24.2Z"/><path class="cls-47" d="M88.64,20.62c.18.23.25.54.09,1.2-1.18,5-.15,5.67-.58,8.79A5.42,5.42,0,0,1,83,35.5c-2.52.2-9-.37-11.48-7.07-1.06-2.85-.23-8.36.33-9.38,1.9-3.42,3.77-2.79,8.48-2.14C84.68,17.52,86.52,17.93,88.64,20.62Z"/><path class="cls-68" d="M89,21c-.25,1.4-3.54,2-7.35,1.36S75,20,75.19,18.63s3.53-2,7.35-1.36S89.25,19.59,89,21Z"/><path class="cls-68" d="M73.35,23.17c.08,2,0,3.68-1.56,4.6C70,28.84,69.1,24.16,69.54,21s3-5.16,6.95-4.33C78.53,17.1,73.16,17.73,73.35,23.17Z"/><path class="cls-69" d="M77.81,31.41A2.1,2.1,0,1,1,76,29,2.1,2.1,0,0,1,77.81,31.41Z"/><path class="cls-69" d="M87,32.33A1.44,1.44,0,1,1,85.8,30.4,1.6,1.6,0,0,1,87,32.33Z"/><path class="cls-70" d="M76.1,26.61a2.21,2.21,0,0,0,4.15,1.05,1.94,1.94,0,0,0-1.66-2.14A2,2,0,0,0,76.1,26.61Z"/><path class="cls-71" d="M76.66,28.16a1.6,1.6,0,0,1-.48-1.53,1.85,1.85,0,0,1,2.35-1.09,2.55,2.55,0,0,1,1.66,1.27,2.48,2.48,0,0,0-2.06-1.54,1.84,1.84,0,0,0-2,1A1.65,1.65,0,0,0,76.66,28.16Z"/><path class="cls-72" d="M77.54,26.86A1.19,1.19,0,0,0,78,28.48a1.19,1.19,0,1,0-.45-1.62Z"/><path class="cls-73" d="M77.67,26.69a.33.33,0,1,0,.45-.12A.33.33,0,0,0,77.67,26.69Z"/><path class="cls-70" d="M87.42,28.18a1.81,1.81,0,0,1-1.87,1.65,1.67,1.67,0,0,1-1.74-1.67,1.83,1.83,0,0,1,1.88-1.66A1.66,1.66,0,0,1,87.42,28.18Z"/><path class="cls-71" d="M86.59,29.54a1.78,1.78,0,0,0,.77-1.36,1.59,1.59,0,0,0-1.63-1.64,2.09,2.09,0,0,0-1.66.81,2,2,0,0,1,2.06-1,1.59,1.59,0,0,1,1.4,1.49A1.79,1.79,0,0,1,86.59,29.54Z"/><path class="cls-72" d="M85.05,27.76a1.27,1.27,0,0,0,.34,1.61,1,1,0,0,0,1.38-.48,1.29,1.29,0,0,0-.34-1.61A1,1,0,0,0,85.05,27.76Z"/><path class="cls-73" d="M85.15,27.59a.35.35,0,0,0,.1.44.26.26,0,0,0,.38-.13.34.34,0,0,0-.09-.44A.27.27,0,0,0,85.15,27.59Z"/><path class="cls-68" d="M88,24.69a.26.26,0,0,0,.19-.05.25.25,0,0,0,0-.34,3.12,3.12,0,0,0-3-.83.23.23,0,0,0-.18.28.24.24,0,0,0,.28.18,2.7,2.7,0,0,1,2.49.68A.22.22,0,0,0,88,24.69Z"/><path class="cls-68" d="M76.78,23.13a.29.29,0,0,0,.18,0,2.64,2.64,0,0,1,2.57,0,.24.24,0,0,0,.32-.1.24.24,0,0,0-.09-.32,3.16,3.16,0,0,0-3.07,0,.23.23,0,0,0-.06.33A.2.2,0,0,0,76.78,23.13Z"/><path class="cls-74" d="M82.63,29.72a.08.08,0,0,1-.07-.08.56.56,0,0,0-.52-.55.55.55,0,0,0-.64.39.1.1,0,0,1-.11.06.09.09,0,0,1-.05-.11.77.77,0,0,1,1.49.21.09.09,0,0,1-.09.08Z"/><path class="cls-75" d="M74.49,23c5.44-3.48,11-5.3,14.74-5.12a11.83,11.83,0,0,0-8.37-5.56c-6-1-11.63,2.2-12.49,7.22a11.21,11.21,0,0,0,1.16,7.22A39.51,39.51,0,0,1,74.49,23Z"/><path class="cls-47" d="M67.35,27.51a4.33,4.33,0,0,0,4.09,3.54c1.59-.13,2-1.9,1.81-4s-1.6-3.72-3.19-3.58C67.88,23.66,66.93,25.45,67.35,27.51Z"/><path class="cls-66" d="M69.84,28.36c.29,1,1.32,1.47,1.79,1.26s.59-.81.47-1.76c-.13-1.11-.57-1.76-1.33-1.58S69.49,27.2,69.84,28.36Z"/><path class="cls-76" d="M89.22,17.78a11.87,11.87,0,0,0-8.41-5.51,13.13,13.13,0,0,0-4.29,0,8.86,8.86,0,0,0-1.9,4.17,9.07,9.07,0,0,0,1,5.84C80.69,19.23,85.72,17.64,89.22,17.78Z"/><path class="cls-77" d="M96,14.56c-1.88-2.3-7.81-1.4-13.88,2.47A28.31,28.31,0,0,0,76.28,22,30.11,30.11,0,0,1,78.87,20c4.62-2.21,8.84-2.3,9.84-.22a3.63,3.63,0,0,1,.35,1.84C96.89,20.73,97.82,16.78,96,14.56Z"/><path class="cls-75" d="M95.71,15.39C93.88,13,88,14,81.9,17.89A42.27,42.27,0,0,0,76.28,22c.64-.39,1.63-.89,2.49-1.3,4.61-2.21,8.84-2.3,9.83-.21A3.51,3.51,0,0,1,89,22.27C96.79,21.36,97.36,17.57,95.71,15.39Z"/><path class="cls-68" d="M90.47,19.71c.25.57-.79,1.58-2.33,2.27s-3,.78-3.24.21.78-1.58,2.32-2.27S90.21,19.14,90.47,19.71Z"/><path class="cls-68" d="M88.22,18.24c.28.84-.53,1.87-1.81,2.29s-2.54.09-2.82-.75.53-1.88,1.8-2.3S87.93,17.39,88.22,18.24Z"/><path class="cls-78" d="M78.56,30.54a3.55,3.55,0,0,0,2.26,2.57,3.32,3.32,0,0,0,3.12-1.4c.35-.76-1.12-.91-2.59-1.31S78.45,29.58,78.56,30.54Z"/><path class="cls-79" d="M80.82,33.13a2.49,2.49,0,0,1-1.18-.65,1.62,1.62,0,0,1,1.12-.37c.63,0,1.47.31,1.69.82A2.72,2.72,0,0,1,80.82,33.13Z"/><path class="cls-8" d="M79.42,29.94a13.18,13.18,0,0,1,1.93.44c.79.21,1.58.36,2.09.56-.26.44-1.18.62-2.19.4S79.36,30.48,79.42,29.94Z"/><path class="cls-80" d="M100,29.59c.55.35,1.41.77,2.93,1.82.17.12,0,1.06-.16.91C101.9,31.47,99.7,30.49,100,29.59Z"/><path class="cls-80" d="M100.15,28.58a10,10,0,0,1,3.15,2.3c.14.17-.12,1.05-.28.91C102.11,30.93,99.88,29.33,100.15,28.58Z"/><path class="cls-47" d="M100.75,27.56a33.83,33.83,0,0,1,4.35,4.13c.14.17-.9,1.38-1.24,1.34-.76.34-1.75-.6-3.44-.65-.29,0-.07-.43,0-.52.28-.23.41-.18,1.23-.48.51-.18.52-.81.39-1.15C101.27,28.9,100.49,28.15,100.75,27.56Z"/><path class="cls-48" d="M107.2,60.38c0,.51,4.44.91,9.91.91s9.91-.4,9.91-.91-4.43-.91-9.91-.91S107.2,59.88,107.2,60.38Z"/><path class="cls-47" d="M120.76,59.11c.11.27,1.72-.22,1.69-.52-.49-3.85-1.58-13-1.72-13.92l-3.78.9S120.2,57.77,120.76,59.11Z"/><path class="cls-81" d="M120.85,59.31a5.14,5.14,0,0,0,1.8-.73c0-1-.08-2.52-.08-2.85l-2.89.62S120.65,58.78,120.85,59.31Z"/><path class="cls-47" d="M113.88,58.82c-.07.29-1.74.06-1.75-.24-.13-3.89-.46-13-.48-14l3.88.29S114.22,57.41,113.88,58.82Z"/><path class="cls-81" d="M113.82,59a5.45,5.45,0,0,1-1.9-.43,28.2,28.2,0,0,1-.25-3l2.93.3S113.93,58.48,113.82,59Z"/><path class="cls-82" d="M127.23,16.82C131,22.23,128.73,32.33,132,37c-13.66,8.46-21.65,3-24.54,1.09-1-4.3-.15-10.63,1.21-17.7C116.44,20,123.11,16.24,127.23,16.82Z"/><path class="cls-47" d="M103.36,30.76c-.31.52-.63,1-1,1.5,3.09,2,6,3.86,9.61,4.83.17-1.12.43-2.19.65-3.31A35.44,35.44,0,0,1,103.36,30.76Z"/><path class="cls-83" d="M109.9,32.84c-1.13,1.28-.49,4-.08,4.24,0,0,3.68,1.6,4.19-3.2A34.63,34.63,0,0,1,109.9,32.84Z"/><path class="cls-84" d="M112.07,43.17A19.24,19.24,0,0,1,108.86,47c1.59.53,3.24,2.42,5.24,3.12,3.68,1.3,7,0,10.38-2.59a15.08,15.08,0,0,1-2.94-4,17.31,17.31,0,0,1-5.81.18A25.76,25.76,0,0,1,112.07,43.17Z"/><path class="cls-83" d="M122.4,43.77a13.3,13.3,0,0,1-6.59,1,7.81,7.81,0,0,1-4.91-1.92s1.85-7.49,2.63-9.07c1.5.24,6,.55,7.65,1.08C121.15,38.19,121.91,42.79,122.4,43.77Z"/><path class="cls-66" d="M114.94,33.92c1.36.15,3.2.33,4.64.56A2.68,2.68,0,0,1,117,36.4,2.51,2.51,0,0,1,114.94,33.92Z"/><path class="cls-66" d="M119.26,32.92,119,35.27c-.06.5-.93.82-1.94.7s-1.8-.61-1.74-1.12l.26-2.34Z"/><path class="cls-85" d="M119.16,43.07c1.88.73,5-1.11,4.64-2.78-.51-2.54-.79-4.81-2.59-5l-.09,4.31c.17,1-.19,1.78-1.92,2.06C119.2,42,119,42.88,119.16,43.07Z"/><path class="cls-86" d="M111.2,42.47a47.4,47.4,0,0,1-.65-6.44c1.27.87,3,.61,2.82,3.1Z"/><path class="cls-87" d="M111.2,42.47c-.24-.8-1.42-5.2-1.42-5.4a2.69,2.69,0,0,1,3.59,2.06s-.81,3.3-.87,3.6A1.55,1.55,0,0,0,111.2,42.47Z"/><path class="cls-88" d="M111.25,42.51c-.24-.81-1.81-4.9-1.82-5.09a2.88,2.88,0,0,1,3.94,1.71s-.81,3.3-.87,3.6A1.39,1.39,0,0,0,111.25,42.51Z"/><path class="cls-86" d="M116.65,42.55c.54-.77,1.14-.7,1.1-2,0-.24,0-2.8,0-3.55-2-.1-4.06.48-4.49,1.81,0,0,.19,3.37.23,3.68a3.76,3.76,0,0,1,1.48-.3A3.86,3.86,0,0,1,116.65,42.55Z"/><path class="cls-87" d="M116.65,42.55c.54-.77.92-1.5,1.51-2.24a13.29,13.29,0,0,0-.11-2.7c-1.17-.38-3.88-.42-4.79,1.22,0,0,.19,3.37.23,3.68a3.76,3.76,0,0,1,1.48-.3A3.86,3.86,0,0,1,116.65,42.55Z"/><path class="cls-88" d="M116.65,42.55c.54-.77,1.26-1.52,1.85-2.26a7.78,7.78,0,0,0-.11-1.82,4,4,0,0,0-5.13.36s.19,3.37.23,3.68a3.76,3.76,0,0,1,1.48-.3A3.86,3.86,0,0,1,116.65,42.55Z"/><path class="cls-89" d="M111.22,43.28c-.48-1-1.7-3.9-2.07-4.85a2.66,2.66,0,0,1,3.38.51s1.58,4.33,1.52,4.63C113.39,42.88,111.58,42.8,111.22,43.28Z"/><path class="cls-89" d="M119.09,43.57c-.16-1.15-.36-3.14-.52-4.34a5,5,0,0,0-4.86-.41s1.19,4.47,1.23,4.78A5,5,0,0,1,119.09,43.57Z"/><polygon class="cls-90" points="114.05 43.57 114.97 43.59 113.73 38.81 112.46 38.84 114.05 43.57"/><path class="cls-85" d="M116.14,40.48c0,.09,0,.26.47.55.08,0-.44-.14-.4,0a3.09,3.09,0,0,0,1,1.22c1.15.91,2.35.88,2.64.55s-.09-2.6-1.18-3.07c-.11-.05.16.86,0,.88s-.4-.29-.8-.44c-.89-.35-1.55-.48-1.47-.15,0,.11,1.36.95,1.34,1S116.15,40.42,116.14,40.48Z"/><path class="cls-85" d="M106.43,26.79a4.24,4.24,0,0,0,3.85,3.64c1.57-.06,2-1.77,2-3.84s-1.42-3.71-3-3.64C107.1,23,106.1,24.75,106.43,26.79Z"/><path class="cls-91" d="M108.25,27.43a1.46,1.46,0,1,0,1.38-1.7A1.55,1.55,0,0,0,108.25,27.43Z"/><path class="cls-85" d="M129.41,29.1a4.25,4.25,0,0,1-4.51,2.8c-1.52-.37-1.64-2.14-1.15-4.15s2.13-3.35,3.66-3C129.49,25.29,130.14,27.16,129.41,29.1Z"/><path class="cls-91" d="M127.38,29.35a1.46,1.46,0,1,1-1-1.94A1.55,1.55,0,0,1,127.38,29.35Z"/><path class="cls-82" d="M128.91,20.75a10,10,0,0,1-11.23,10.47c-5.82-.58-10.1-6.09-8.83-12.76.7-3.7,4.91-6.24,10.46-5.65C125.12,13.43,128.85,15.78,128.91,20.75Z"/><path class="cls-85" d="M127.27,19.16c.41,1.22-1,11.47-2.31,12.78s-6.67,2.33-7.75,2.23-6-1.93-6.84-3.7c-1-2.09-.55-11.29-.07-12.34,1.61-3.55,4.82-3.35,9-2.93C123.22,15.59,126.21,16,127.27,19.16Z"/><path class="cls-92" d="M124.59,30.43a1.8,1.8,0,1,1-1.61-2A1.8,1.8,0,0,1,124.59,30.43Z"/><path class="cls-92" d="M114.37,29.32a1.8,1.8,0,1,1-1.61-2A1.8,1.8,0,0,1,114.37,29.32Z"/><path class="cls-74" d="M118.64,27.67s-.08,0-.09-.09a.69.69,0,0,0-1.34-.13.1.1,0,0,1-.12.07.11.11,0,0,1-.07-.12.84.84,0,0,1,.93-.62.83.83,0,0,1,.79.79.08.08,0,0,1-.09.1Z"/><path class="cls-93" d="M120.27,30.2A2.7,2.7,0,0,1,117,31.7a2.73,2.73,0,0,1-1.9-3c.34-1.1,1.48-.24,2.86.1S120.6,29.1,120.27,30.2Z"/><path class="cls-79" d="M117.22,30.68a2.81,2.81,0,0,0-1.65-.05A3.24,3.24,0,0,0,117,31.72a3,3,0,0,0,1.94-.15A3.62,3.62,0,0,0,117.22,30.68Z"/><path class="cls-8" d="M119.77,29.19a8.22,8.22,0,0,0-1.77-.45,14.18,14.18,0,0,0-2-.59c0,.75.83,1.3,1.47,1.49A2.31,2.31,0,0,0,119.77,29.19Z"/><path class="cls-94" d="M125.2,22.42a.26.26,0,0,1-.17-.09,3.08,3.08,0,0,0-2.85-.82.28.28,0,0,1-.11-.54,3.61,3.61,0,0,1,3.38,1,.26.26,0,0,1,0,.38A.27.27,0,0,1,125.2,22.42Z"/><path class="cls-94" d="M112,21.16a.28.28,0,0,1-.2-.1.28.28,0,0,1,0-.39,3.6,3.6,0,0,1,3.52-.23.27.27,0,1,1-.23.49,3.08,3.08,0,0,0-3,.18A.27.27,0,0,1,112,21.16Z"/><path class="cls-82" d="M112.23,15.29a17.27,17.27,0,0,1,7-.63c2.77.23,5.6.85,7,2,.95.74,1.73,5.72,1.28,5.28a7.86,7.86,0,0,0-2.4-1.42,11,11,0,0,0-.83-2.14c0,.29,0,1.29,0,1.83a24.36,24.36,0,0,0-4.28-1.06,4.47,4.47,0,0,0-.13-1.36,7.44,7.44,0,0,0-.78,1.24l-.67-.07a25.48,25.48,0,0,0-4.7,0c.23-1.74.29-2.29.29-2.17a6.26,6.26,0,0,0-.72,2.22,12.33,12.33,0,0,0-1.24.25c0-.51,0-1.35,0-1.49a5.78,5.78,0,0,0-.72,1.72,12.75,12.75,0,0,0-1.81.8C108.92,20.55,110.94,15.83,112.23,15.29Z"/><path class="cls-70" d="M115.83,26.9s-3,.69-4-.93c-1.2-2,1-3.29,2.31-2.89S116.43,24.62,115.83,26.9Z"/><path class="cls-94" d="M111.83,23.56a2.19,2.19,0,0,1,2.12-.64,2.34,2.34,0,0,1,1.75,1.39,2.59,2.59,0,0,0-1.56-1.14,2.18,2.18,0,0,0-2.22.67,2,2,0,0,0,0,2.18A1.94,1.94,0,0,1,111.83,23.56Z"/><path class="cls-95" d="M115.32,25.27a1.31,1.31,0,1,1-1.64-.87A1.3,1.3,0,0,1,115.32,25.27Z"/><path class="cls-73" d="M115.23,25.05a.36.36,0,0,1-.24.45.35.35,0,0,1-.45-.24.35.35,0,0,1,.24-.45A.36.36,0,0,1,115.23,25.05Z"/><path class="cls-70" d="M120.23,27.27s2.84,1.17,4.07-.28c1.51-1.76-.44-3.4-1.81-3.22S120,24.92,120.23,27.27Z"/><path class="cls-94" d="M124.72,24.62a2.23,2.23,0,0,0-2-1,2.38,2.38,0,0,0-2,1.09,2.57,2.57,0,0,1,1.72-.87,2.17,2.17,0,0,1,2.08,1,2,2,0,0,1-.32,2.16A1.94,1.94,0,0,0,124.72,24.62Z"/><path class="cls-95" d="M123.25,25.92a1.31,1.31,0,1,1-2.51.77,1.31,1.31,0,0,1,2.51-.77Z"/><path class="cls-73" d="M123.17,25.71a.37.37,0,0,1-.25.45.36.36,0,0,1-.45-.24.37.37,0,0,1,.24-.46A.38.38,0,0,1,123.17,25.71Z"/><path class="cls-83" d="M120.77,39.68a4.5,4.5,0,0,0,3.82-.77c-.66-.81-1.79-4-3.45-4.07C121.09,34.92,120.77,39.68,120.77,39.68Z"/><path class="cls-96" d="M113.59,12.75c-.12-2.37,1.18-4,3.7-2.78-2.79,1.25-3.38,4.55-3.45,4.3a1.16,1.16,0,0,1,0-.18,1,1,0,0,1,0,.14c-.1.36-1.3-1.14-4.72-.44C110.8,10.67,112.89,11.38,113.59,12.75Z"/><path class="cls-96" d="M110.66,16.32a10.25,10.25,0,0,1,9.39-3,11.5,11.5,0,0,1,7.9,5.47c-1.87-2.39-5.2-3.71-8-4.15C116.83,14.15,112.94,14.5,110.66,16.32Z"/><path class="cls-81" d="M111.87,57.15c0-.17,1.88.23,2.21.18,0,.41.27,1.07.25,1.63a.83.83,0,0,1-.74.74c-1.48.25-5.43,1-5.6,0C107.85,58.84,110,58.38,111.87,57.15Z"/><path class="cls-83" d="M114.33,57.85a.13.13,0,0,0-.17,0,8.24,8.24,0,0,1-1.46.56l-.5.12a2.56,2.56,0,0,0-1-1.22.15.15,0,0,0-.22.06.17.17,0,0,0,.06.23,2.24,2.24,0,0,1,.78,1,3,3,0,0,1-2.19-.52c-1.39.81-2.39,1-2.4,1.65,0,.92,7.18,0,7.18,0C114.44,59.2,114.34,58.35,114.33,57.85Z"/><path class="cls-97" d="M114.45,59.41v.35s-6.18,1.06-7.12.24a.3.3,0,0,1-.06-.22C109,60.13,112.91,59.64,114.45,59.41Z"/><path class="cls-81" d="M122.59,57.15c0-.17-1.89.23-2.21.18,0,.41-.27,1.07-.26,1.63a.85.85,0,0,0,.74.74c1.48.25,5.43,1,5.61,0C126.61,58.84,124.45,58.38,122.59,57.15Z"/><path class="cls-83" d="M120.13,57.85a.11.11,0,0,1,.16,0,8.67,8.67,0,0,0,1.47.56,4.54,4.54,0,0,0,.5.12,2.5,2.5,0,0,1,1-1.22.15.15,0,0,1,.22.06.17.17,0,0,1-.06.23,2.24,2.24,0,0,0-.78,1,3,3,0,0,0,2.19-.52c1.39.81,2.39,1,2.4,1.65,0,.92-7.18,0-7.18,0C120,59.2,120.12,58.35,120.13,57.85Z"/><path class="cls-97" d="M120,59.41v.35s6.17,1.06,7.12.24a.43.43,0,0,0,.06-.22C125.48,60.13,121.55,59.64,120,59.41Z"/><polygon class="cls-48" points="85.47 76.58 84.46 75.6 101.87 69.25 106.88 74.19 85.47 76.58"/><polygon class="cls-98" points="100.91 67.45 81.16 68.29 81.24 69.67 84.47 75.81 105.53 73.52 105.42 72.65 100.91 67.45"/><polygon class="cls-99" points="100.19 66.21 81.17 68.28 84.94 74.9 105.42 72.65 100.19 66.21"/><path class="cls-100" d="M91.18,67.19a4.39,4.39,0,0,0-4-.19,52.22,52.22,0,0,1-5.69,1.37L85,74.47a27.72,27.72,0,0,0,4.21-.69c4.69-1.25,6.09.08,6,0Z"/><path class="cls-99" d="M95.22,73.79l-4-6.6Z"/><polygon class="cls-99" points="95.13 73.84 91.1 67.24 91.26 67.14 95.3 73.74 95.13 73.84"/><path class="cls-101" d="M91.32,72a5.74,5.74,0,0,1,2.1.3c-.16-.28-2.76-4.49-2.76-4.49a3.57,3.57,0,0,0-3.28-.16,44.12,44.12,0,0,1-4.67,1.12l2.89,5a22.9,22.9,0,0,0,3.46-.57,11.57,11.57,0,0,1,2.68-.44Z"/><path class="cls-102" d="M99.34,65.92c-1.65,0-2.84-.62-4.48-.44a6.48,6.48,0,0,0-3.68,1.71l4,6.6a5.76,5.76,0,0,1,4-1.76c1.57-.14,2.64.17,4.76-.07Z"/><path class="cls-100" d="M98.14,65.18a18.18,18.18,0,0,0-3.21-.11,6.16,6.16,0,0,0-3.75,2.12l4,6.6a5.8,5.8,0,0,1,3.54-3,8.66,8.66,0,0,1,3.38-.27Z"/><path class="cls-101" d="M97.89,65.67a16.65,16.65,0,0,0-2.82-.08,5.53,5.53,0,0,0-3.31,1.8l3.52,5.53a5.07,5.07,0,0,1,3.13-2.49,7.83,7.83,0,0,1,3-.25Z"/><polygon class="cls-48" points="50.77 71.75 56.66 72.53 58.13 70.69 50.77 71.75"/><path class="cls-103" d="M55.65,65c-.76,3.61-6.86,4.34-14.63,3.28-8.28-1.13-15,.33-14.23-3.29S35,56.91,42.67,58.54,56.42,61.42,55.65,65Z"/><path class="cls-47" d="M29.43,51.61c0-.36,2.39-.7,2.45-.35.48,2.5,1,5.4,1.39,5.84s3.74.65,6.26.23l-.25,4c-2.42.27-7.85-.39-8.52-1C29.87,59.6,29.44,52,29.43,51.61Z"/><path class="cls-104" d="M33.22,56.76a14.52,14.52,0,0,1-.54-2.64c-.49.08-3.22.4-3.53.49.73,3.75.86,5.8,1.46,6.26,1,.79,6.52,1.27,8.94,1.13l-.08-5C37,57.45,33.68,57.62,33.22,56.76Z"/><path class="cls-47" d="M61.83,63.18c-.06,1.21-.58,2.07-1.21,2.13-4.66.49-9.8.51-11.87-4.14-.4-1.47,2.29-5,3.72-1.73C54.48,64.05,61.88,62,61.83,63.18Z"/><path class="cls-105" d="M49.56,64.54c3.26.9,5.86-2.2,6.13-2.7A13.05,13.05,0,0,1,52.6,60c-1.63-1.81-4.87-.13-5.08-.3C46.48,61.29,49.26,62.91,49.56,64.54Z"/><path class="cls-47" d="M25.85,55.83c0-.36,2.42-.54,2.47-.18.31,2.52.67,5.44,1,5.91s3.7.88,6.24.63l-.51,4c-2.43.12-7.81-.89-8.43-1.49C25.78,63.83,25.83,56.21,25.85,55.83Z"/><path class="cls-104" d="M29.3,61.21a14.32,14.32,0,0,1-.37-2.66c-.5,0-3.24.19-3.56.26.5,3.79.49,5.84,1.06,6.34,1,.86,6.43,1.69,8.85,1.7l.24-5C33,62.14,29.7,62.1,29.3,61.21Z"/><path class="cls-106" d="M28.78,55.94c0,.24.09,1.3.11,1.49a5.73,5.73,0,0,1-3.66,0,6.63,6.63,0,0,0,.34-1.51C25.83,55.47,28.43,55.56,28.78,55.94Z"/><path class="cls-107" d="M25.23,56.6c.88.31,3.39.57,3.79-.39a12.66,12.66,0,0,0,.13-1.79c-4.19-.61-6.91-1.19-6.92-1.08C22.18,53.88,22.12,55.51,25.23,56.6Z"/><path class="cls-108" d="M53.88,60c.73,3.15-2.93,8.37-8.45,8-4-.29-5.64-.36-7.29-.46-1.31-.07-3.43-.06-4.23-.17.05-1.22-.47-2.36,0-4.09a11.85,11.85,0,0,1,4.52-6.68C43.58,58.63,53.15,56.84,53.88,60Z"/><path class="cls-47" d="M56.38,69.1c.42.84.38,2.47-.24,2.53-4.66.5-9.81.51-11.87-4.14-.4-1.46,2.25-5,3.72-1.72C50,70.2,55.57,69.1,56.38,69.1Z"/><path class="cls-109" d="M42.94,67.7c2.88,2.5,6.88-.35,7.16-.85a15.45,15.45,0,0,1-2-3.32c-.45-1.78-3.42-.64-3.63-.81A8.47,8.47,0,0,0,42.94,67.7Z"/><path class="cls-110" d="M43.53,68.46a5.8,5.8,0,0,0,5.95-2,32.76,32.76,0,0,0-1.8-4c-.51-.73-3.09-.8-4,.75S43.23,66.83,43.53,68.46Z"/><path class="cls-110" d="M40.82,57.22c-.37-.07-.74-.16-1.09-.25-4.08,3.1-4.49,7.15-4.32,10.44l.83,0C36.07,64.19,36.47,60.16,40.82,57.22Z"/><path class="cls-110" d="M42.16,57.43l-.61-.09c-4.09,3-4.61,6.87-4.49,10.11h.42C37.36,64.24,37.89,60.33,42.16,57.43Z"/><path class="cls-67" d="M64.23,56.39c-.29,2.37-1.62,4-2.68,4s-1.32-1.91-1.22-4.17,1-4,2.09-4C63.86,52.31,64.5,54.16,64.23,56.39Z"/><path class="cls-66" d="M62.82,57.53c-.34.92-1,1.42-1.55,1.13s-.66-1.28-.32-2.19,1-1.42,1.54-1.13S63.16,56.61,62.82,57.53Z"/><path class="cls-111" d="M62.13,50.73c-.29,7.38-5,10.52-11.5,10.26S39.56,57.23,39.86,49.84s5.1-8.91,11.56-8.65S62.42,43.34,62.13,50.73Z"/><path class="cls-47" d="M61.53,46.8c.23.24.33.57.23,1.31-.76,5.61.45,6.26.31,9.75a6,6,0,0,1-5.2,6c-2.76.5-9.94.56-13.41-6.55-1.47-3-1.16-9.19-.65-10.37,1.72-4,3.85-3.48,9.11-3.27C56.84,43.81,58.91,44.07,61.53,46.8Z"/><path class="cls-111" d="M45,51.26c.29,2.23.37,4.06-1.23,5.24-1.86,1.37-3.35-3.69-3.21-7.2s2.73-6,7.19-5.54C50,44,44.17,45.29,45,51.26Z"/><path class="cls-69" d="M50.77,59.86a2.33,2.33,0,1,1-2.23-2.41A2.33,2.33,0,0,1,50.77,59.86Z"/><path class="cls-69" d="M60.94,59.88a1.59,1.59,0,1,1-1.48-2A1.78,1.78,0,0,1,60.94,59.88Z"/><path class="cls-112" d="M61.3,51.35a.29.29,0,0,0,.21-.08.27.27,0,0,0,0-.37,3.48,3.48,0,0,0-3.34-.61.28.28,0,0,0-.17.34.26.26,0,0,0,.33.16,3,3,0,0,1,2.81.48A.3.3,0,0,0,61.3,51.35Z"/><path class="cls-112" d="M48.74,50.85a.33.33,0,0,0,.19-.06,2.94,2.94,0,0,1,2.83-.26.26.26,0,0,0,.35-.14.27.27,0,0,0-.14-.34,3.48,3.48,0,0,0-3.38.33.26.26,0,0,0,0,.37A.25.25,0,0,0,48.74,50.85Z"/><path class="cls-74" d="M55.9,57.48a.09.09,0,0,1-.09-.08.62.62,0,0,0-.63-.56.63.63,0,0,0-.67.5.1.1,0,0,1-.11.08.09.09,0,0,1-.07-.11.85.85,0,0,1,1.66.06.1.1,0,0,1-.08.11Z"/><path class="cls-47" d="M38.82,56.7c.74,2.37,3.14,3.77,4.88,3.45s2-2.31,1.57-4.61S43.1,51.63,41.36,52C39,52.39,38.13,54.46,38.82,56.7Z"/><path class="cls-66" d="M41.65,57.36c.43,1,1.61,1.48,2.12,1.19s.55-.95.32-2c-.27-1.21-.81-1.87-1.64-1.6S41.14,56.12,41.65,57.36Z"/><path class="cls-113" d="M56.41,59.87c-.16,1-1.41,1.55-2.78,1.31S51.28,60,51.45,59s1.29-.57,2.68-.4S56.57,58.92,56.41,59.87Z"/><path class="cls-114" d="M53.93,60.3a2.84,2.84,0,0,0-1.85.22,3.46,3.46,0,0,0,3.41.48A3.06,3.06,0,0,0,53.93,60.3Z"/><path class="cls-8" d="M55.85,58.92a7.9,7.9,0,0,0-1.72-.32,12,12,0,0,0-2-.22c.13.42.82.83,1.71,1S55.66,59.33,55.85,58.92Z"/><path class="cls-111" d="M61.24,44.14c1.08-.37,1.73-.81,1.7-1.25-.06-.75-2.13-1.24-4.89-1.25,1.19-1,1.6-1.48,1.35-2.46-.5-2-4.28-2.79-8.43-1.81s-6.84,2.73-6.33,4.71a3,3,0,0,0-2.43,1.48,8.93,8.93,0,0,0,2.22,2.78c1.73,1.54,3.91,1.72,4.43,1a1.14,1.14,0,0,0-.09-1.17,25.79,25.79,0,0,0,5.5,1.63c5,.94,10.19.6,10.48-.91C64.91,46.07,63.46,44.55,61.24,44.14Z"/><path class="cls-70" d="M57.39,56.89s2.4,1.09,3.44-.39a1.92,1.92,0,0,0-1.54-3.18C58.23,53.52,57.2,54.54,57.39,56.89Z"/><path class="cls-112" d="M61.17,54.12a1.73,1.73,0,0,0-1.68-.93,2.05,2.05,0,0,0-1.64,1.14,2.1,2.1,0,0,1,1.45-.91,1.71,1.71,0,0,1,1.76,1,2.29,2.29,0,0,1-.26,2.17A2.21,2.21,0,0,0,61.17,54.12Z"/><path class="cls-95" d="M58.27,55.24A1.41,1.41,0,0,0,58.56,57a1.07,1.07,0,0,0,1.56-.45,1.43,1.43,0,0,0-.3-1.8A1.06,1.06,0,0,0,58.27,55.24Z"/><path class="cls-73" d="M58.4,55.05a.39.39,0,0,0,.08.5.3.3,0,0,0,.43-.13.39.39,0,0,0-.08-.5A.3.3,0,0,0,58.4,55.05Z"/><path class="cls-70" d="M52.55,56.57s-3,.74-4-.87c-1.23-2,.94-3.31,2.27-2.93S53.11,54.27,52.55,56.57Z"/><path class="cls-112" d="M48.5,53.29a2.2,2.2,0,0,1,2.11-.68A2.35,2.35,0,0,1,52.38,54a2.54,2.54,0,0,0-1.58-1.12,2.19,2.19,0,0,0-2.21.7,2,2,0,0,0,0,2.19A1.94,1.94,0,0,1,48.5,53.29Z"/><path class="cls-95" d="M49.68,54.8a1.32,1.32,0,1,0,1.75-.63A1.32,1.32,0,0,0,49.68,54.8Z"/><path class="cls-73" d="M49.8,54.59a.37.37,0,1,0,.49-.17A.37.37,0,0,0,49.8,54.59Z"/><path class="cls-74" d="M55.93,57.49a.09.09,0,0,1-.09-.08.67.67,0,0,0-1.3-.09.09.09,0,1,1-.18,0,.85.85,0,0,1,1.66.11.08.08,0,0,1-.08.1Z"/><path class="cls-115" d="M29.14,54.57c-.29,1.08-1.07,1.29-3.76.74-1.93-.39-3.29-1.26-3.19-1.89s1.78-.85,3.72-.55S29.31,54,29.14,54.57Z"/><path class="cls-106" d="M32.36,51.3c0,.26.09,1.39.11,1.59a5.4,5.4,0,0,1-3.67,0,7,7,0,0,0,.35-1.61C29.41,50.82,32,50.9,32.36,51.3Z"/><path class="cls-107" d="M28.81,52c.88.31,3.39.57,3.79-.39a12.66,12.66,0,0,0,.13-1.79c-4.19-.61-6.91-1.19-6.92-1.08C25.76,49.23,25.7,50.86,28.81,52Z"/><path class="cls-115" d="M32.72,49.92c-.29,1.08-1.07,1.29-3.76.74-1.93-.39-3.29-1.26-3.19-1.89s1.78-.85,3.72-.56S32.89,49.31,32.72,49.92Z"/><path class="cls-48" d="M154.46,66.48c0-.62-5.71-.37-13.07-.37s-13.33.5-13.33,1.11,6,1.12,13.33,1.12c1.19,0,2.34,0,3.44,0-1.13.32-4.24,2.26-5.7,2.58-2.13.45-5.56,1.12-5.34,1.69s5.64-.2,6.83-.54c3.38-1.33,5.47-2.32,6.29-2.63C151.33,67.74,154.46,66.88,154.46,66.48Z"/><path class="cls-94" d="M159,35a45.63,45.63,0,0,0,8.11,9.43C157,62.24,144.83,54,141.84,52.63a23.93,23.93,0,0,1-3.15-14.05C146.16,38.58,155.05,34.26,159,35Z"/><path class="cls-47" d="M132.88,63.34l-4.82,1.88.57,1.85c1.24-.3,3.07-.71,5-1.14a1.32,1.32,0,0,0,1-1.68l0-.09A1.31,1.31,0,0,0,132.88,63.34Z"/><path class="cls-116" d="M130,64.06c.28.74.56,2,.85,2.72,4.81-1.53,7.74-2.08,12.48-.12.44-1.4.89-3.19,1.28-4.61C138.68,61,135.51,62.1,130,64.06Z"/><path class="cls-117" d="M153.15,62.06a6.59,6.59,0,0,1-5.3,1.06A9.09,9.09,0,0,1,142.68,61s1.28-6.65,1.93-9c2.06,1,5.32.66,7.85,1C152.71,54.83,153.06,62.07,153.15,62.06Z"/><path class="cls-116" d="M153.9,65.13a18.91,18.91,0,0,1-12.15-3.34c.18-.34.62-1.84.64-1.91,1.7.25,9.5.87,11.36,1.13A12.72,12.72,0,0,1,153.9,65.13Z"/><path class="cls-116" d="M151.46,62.35A6.18,6.18,0,0,1,147,63a8.77,8.77,0,0,1-4.39-1.65s1.33-5,1.93-6.33c1.21.27,4.22.44,5.45.57C150.26,56.94,151.38,62.36,151.46,62.35Z"/><polygon class="cls-118" points="147.74 59.61 146.42 59.82 145.22 59.17 145.54 57.1 148.01 57.35 147.74 59.61"/><path class="cls-119" d="M147.47,59.32l-1.27.16L145.07,59l.29-2.25a7.46,7.46,0,0,0,1.19.24,7.1,7.1,0,0,0,1.21.07Z"/><path class="cls-66" d="M146.22,50.62l0,2.5c0,.54.75,1,1.66,1s1.63-.47,1.62-1l0-2.5Z"/><path class="cls-47" d="M140.54,65.92c-.82,1.87-1.57,3.59-2.09,4.74l1.72.9c.67-1.08,1.67-2.67,2.76-4.37a1.31,1.31,0,0,0-.51-1.87l-.08,0A1.3,1.3,0,0,0,140.54,65.92Z"/><path class="cls-116" d="M145.06,55.66l-.54-.1c.06-.31.61-3,1.75-3.53l.23.5C145.83,52.84,145.26,54.62,145.06,55.66Z"/><path class="cls-120" d="M136.85,44a4.25,4.25,0,0,0,3.67,3.83c1.58,0,2.12-1.67,2.15-3.74s-1.24-3.77-2.81-3.79C137.71,40.33,136.62,42,136.85,44Z"/><g class="cls-121"><path d="M139.52,67.91c.71.35,1.52.67,2.22,1,2.93-5.8,4.86-4.38,10.53-2.76.61,0,.31-3.66-.23-3.78C147.92,59.58,141.08,60.19,139.52,67.91Z"/></g><path class="cls-116" d="M139.13,68.45c.71.36,1.91.86,2.61,1.22,2.93-5.79,5.72-2.69,10-2.89,3.17.1,2.22-4.36,1.69-4.48C145.65,60.47,142.23,61.34,139.13,68.45Z"/><path class="cls-122" d="M138.27,68.69c.1-.11,1.06.3,1,.62a.93.93,0,0,1-.08.22c.24.08.49.16.73.22a14.24,14.24,0,0,0,1.46.34c-.14.52-.47,1.39-.63,2,0,0-6.09-.44-6.66-1.9C133.8,69.54,137.43,69.52,138.27,68.69Z"/><path class="cls-62" d="M137.05,69.14a1.41,1.41,0,0,1,.74.62.07.07,0,0,0,.05,0,.06.06,0,0,0,.06,0,.09.09,0,0,0,0-.12,1.53,1.53,0,0,0-.84-.7h0a.08.08,0,1,0,0,.16Zm-.49.12a1.79,1.79,0,0,1,.79.68.07.07,0,0,0,.06,0h.06a.09.09,0,0,0,0-.12,1.91,1.91,0,0,0-.9-.77.08.08,0,0,0-.1.06S136.51,69.24,136.56,69.26Zm-.56,0a.1.1,0,0,0,.08.1,2,2,0,0,1,.81.73.09.09,0,0,0,.05,0,.06.06,0,0,0,.07,0,.09.09,0,0,0,0-.12,2,2,0,0,0-.94-.8A.09.09,0,0,0,136,69.3Z"/><path class="cls-123" d="M140.84,71.61c-.05.16-.09.31-.13.45s-6.09-.44-6.66-1.9c-.05-.11,0-.21.18-.29C135.21,71,139.07,71.45,140.84,71.61Z"/><path class="cls-124" d="M142,69.77c.09-.19.49-.94.56-1.09l-3.13-1.55-.58,1.09A16.37,16.37,0,0,0,142,69.77Z"/><path class="cls-91" d="M138.64,45.35a1.46,1.46,0,1,0,1.47-1.63A1.56,1.56,0,0,0,138.64,45.35Z"/><path class="cls-120" d="M159.7,48.06a4.23,4.23,0,0,1-4.64,2.58c-1.5-.45-1.53-2.22-.94-4.21s2.29-3.24,3.8-2.79C160,44.26,160.53,46.17,159.7,48.06Z"/><path class="cls-91" d="M157.67,48.21a1.47,1.47,0,1,1-2.79-.82,1.47,1.47,0,1,1,2.79.82Z"/><path class="cls-94" d="M159.9,41.17c-1,6.91-5.89,9.36-12,8.44S137.72,44.9,138.76,38s5.78-7.84,11.91-6.92S160.94,34.25,159.9,41.17Z"/><path class="cls-85" d="M158.06,38c.35,1.24-1.54,11.41-2.94,12.65s-6.79,2-7.86,1.85-5.93-2.23-6.65-4c-.85-2.14,0-11.31.54-12.34,1.79-3.47,5-3.12,9.15-2.49C154.19,34.26,157.15,34.81,158.06,38Z"/><path class="cls-92" d="M155.27,49.72a2,2,0,1,1-1.67-2.27A2,2,0,0,1,155.27,49.72Z"/><path class="cls-69" d="M144.78,48.14a2,2,0,1,1-1.68-2.27A2,2,0,0,1,144.78,48.14Z"/><path class="cls-74" d="M149,46.11a.1.1,0,0,1-.08-.1.65.65,0,0,0-.59-.64.64.64,0,0,0-.75.44.1.1,0,0,1-.12.07.1.1,0,0,1-.06-.13.88.88,0,0,1,1.71.26.1.1,0,0,1-.09.1Z"/><path class="cls-94" d="M162.77,43.72c.73-.1-2.33-4.31-1.62-4.48-2.59-1-1.78-5-5.08-7a15.2,15.2,0,0,0-12.4-.86c-2.93,1.43-3.5,3.69-4,6.25-.62,2.29-1.18,2.93-2.38,3.35a2.15,2.15,0,0,0,2.42-.18A3.43,3.43,0,0,1,138,43.25a4,4,0,0,0,4-2.69c.55-1.6-.26-3.54.05-4.15.17-.36,1.66-2.39,2.19-2.35,1.16.07,2,4.47,6.1,4.8a8.62,8.62,0,0,1-3-4.53,5.78,5.78,0,0,1,.89.84c3,3.49,4.92,3.65,7.84,3.66-.2,3.15-1.86,10.28,3.29,11.36C159.11,49.72,162.88,47.21,162.77,43.72Z"/><path class="cls-94" d="M155.6,40.61a.31.31,0,0,1-.16-.12,3.1,3.1,0,0,0-2.75-1.1.27.27,0,0,1-.06-.54,3.6,3.6,0,0,1,3.26,1.34.27.27,0,0,1-.07.38A.35.35,0,0,1,155.6,40.61Z"/><path class="cls-94" d="M142.66,39.16a.3.3,0,0,1-.2-.1.27.27,0,0,1,0-.39A3.63,3.63,0,0,1,146,38.3a.26.26,0,0,1,.15.35.28.28,0,0,1-.36.15,3.09,3.09,0,0,0-2.95.29A.26.26,0,0,1,142.66,39.16Z"/><path class="cls-70" d="M150.67,43.55c-.79.92-.83,2-.27,2.5.83.72,2.93,1.13,3.82.32a2.18,2.18,0,0,0-.51-3.26A2.23,2.23,0,0,0,150.67,43.55Z"/><path class="cls-71" d="M154.65,43.71c-.81-1.65-3.21-1.38-4-.13a2.25,2.25,0,0,1,3-.41,2.38,2.38,0,0,1,1,1.76,1.93,1.93,0,0,1-.52,1.48A2.29,2.29,0,0,0,154.65,43.71Z"/><circle class="cls-72" cx="152.03" cy="44.88" r="1.35"/><path class="cls-73" d="M151,44.13a.38.38,0,1,0,.5-.15A.37.37,0,0,0,151,44.13Z"/><path class="cls-70" d="M146.65,42.87a1.86,1.86,0,0,1-.3,2.5c-1,.51-3.12.43-3.8-.56a2.17,2.17,0,0,1,1.24-3.05A2.22,2.22,0,0,1,146.65,42.87Z"/><path class="cls-71" d="M142.73,42.12c1.17-1.42,3.44-.62,3.94.79a2.27,2.27,0,0,0-2.86-1.1,2.44,2.44,0,0,0-1.39,1.49,1.94,1.94,0,0,0,.16,1.56A2.33,2.33,0,0,1,142.73,42.12Z"/><path class="cls-72" d="M143.83,43.21a1.35,1.35,0,1,0,1.83-.54A1.35,1.35,0,0,0,143.83,43.21Z"/><path class="cls-73" d="M144,43.11a.37.37,0,1,0,.66.35.36.36,0,0,0-.15-.5A.38.38,0,0,0,144,43.11Z"/><path class="cls-78" d="M151.21,47.15c1.15.38-1.69,3.71-3.3,3.55s-3.75-3.85-2.55-4.12c1-.23,1.33.51,3,.54S150.18,46.81,151.21,47.15Z"/><path class="cls-8" d="M148.33,47.09c-1.56,0-1.93-.69-2.83-.58.15.65,1.24,1.25,2.63,1.39s2.58-.24,2.85-.86C150.16,46.84,149.82,47.11,148.33,47.09Z"/><path class="cls-79" d="M146.51,49.93a1.92,1.92,0,0,0,2.9.28,3.18,3.18,0,0,0-.85-.48A2,2,0,0,0,146.51,49.93Z"/><path class="cls-125" d="M147.28,60.53a6.38,6.38,0,0,0,.84-2.14c2.94.88,4,.76,4.28-4a2.52,2.52,0,0,1,2,2.27C154.55,61.94,153.6,63.82,147.28,60.53Z"/><path class="cls-117" d="M147.4,60.38a6.38,6.38,0,0,0,.84-2.14c4.68,2.31,3.85.6,4.22-5.28,1.25.34,1.87,2.35,2.07,3.54C154.67,61.79,153.72,63.67,147.4,60.38Z"/><path class="cls-116" d="M149.74,56l-.54,0a9.71,9.71,0,0,1,1-3.23l.67,0A9.26,9.26,0,0,0,149.74,56Z"/><path class="cls-126" d="M138.52,51.75l1.47,10a.32.32,0,0,0,.3.27l7.32,1.17c.19,0,.44-.31.42-.49l-1.4-10.65a.33.33,0,0,0-.3-.27L139,51.32C138.8,51.31,138.5,51.57,138.52,51.75Z"/><path class="cls-127" d="M138.44,51.86,139.79,62a.32.32,0,0,0,.3.27l7.39,1a.3.3,0,0,0,.32-.33l-1.4-10.64a.32.32,0,0,0-.3-.27l-7.34-.51A.29.29,0,0,0,138.44,51.86Z"/><polygon class="cls-128" points="146.75 55 146.93 56.35 138.69 53.8 138.52 52.45 146.75 55"/><path class="cls-128" d="M139.65,51.6l-.89-.06a.29.29,0,0,0-.31.2l8.2,2.53-.07-.53Z"/><polygon class="cls-128" points="139.53 60.16 139.47 59.69 147.7 62.23 147.76 62.71 139.53 60.16"/><path class="cls-129" d="M142.4,54.62a.89.89,0,0,0-.83,1,1,1,0,0,0,1.08.84.88.88,0,0,0,.83-1A1,1,0,0,0,142.4,54.62Z"/><path class="cls-130" d="M139.13,56c.57.18.92.47.89.82,0,.2-.24.28-.39.34a.33.33,0,0,1,.3.37c0,.16-.22.31-.43.37.2,0,.58.24.62.45a.42.42,0,0,1-.06.34.52.52,0,0,1,.3.5c0,.27-.35.59-.88.68L139,56Z"/><path class="cls-131" d="M137.9,56.12c-.06.2.18.46.58.64-.4,0-.7.13-.72.32s.33.5.83.62c-.43,0-.73.21-.73.44s.36.46.84.54c-.27.13-.42.31-.37.49s.57.4,1.1.3.9-.38.82-.64-.21-.24-.44-.29a.38.38,0,0,0,.2-.29c0-.2-.27-.4-.65-.49.29,0,.5-.15.52-.31s-.14-.34-.42-.48c.27,0,.46-.09.51-.23s-.33-.59-.9-.76S138,55.87,137.9,56.12Z"/><path class="cls-85" d="M144.09,57.52c0,.12,0,.36.67.65.11,0-.59-.11-.52,0a3.71,3.71,0,0,0,1.41,1.44c1.57,1,3.13.73,3.48.22.24-.35-.38-3.47-1.85-3.9-.15,0,.3,1.13.12,1.18s-.55-.3-1.09-.44c-1.18-.3-2.06-.33-1.92.09.05.15,1.86,1,1.85,1.1S144.09,57.44,144.09,57.52Z"/><path class="cls-122" d="M128.71,63.94c.15,0,.54,1,.24,1.12l-.21.1c.11.22.23.45.36.67a13,13,0,0,0,.79,1.27c-.46.27-1.31.65-1.84,1,0,0-4-4.61-3.37-6C125,61.38,127.53,63.93,128.71,63.94Z"/><path class="cls-62" d="M127.53,63.4a1.33,1.33,0,0,1,.08,1,.17.17,0,0,0,0,.07l0,0a.1.1,0,0,0,.11-.06,1.58,1.58,0,0,0-.1-1.09h0a.1.1,0,0,0-.12,0,.09.09,0,0,0,0,.12Zm-.43-.27a1.81,1.81,0,0,1,.08,1.05.09.09,0,0,0,0,.07s0,0,.06,0a.09.09,0,0,0,.1-.06,1.91,1.91,0,0,0-.09-1.18.1.1,0,0,0-.12,0A.09.09,0,0,0,127.1,63.13Zm-.43-.36a.1.1,0,0,0,0,.13,2,2,0,0,1,.06,1.08.09.09,0,0,0,.06.1.08.08,0,0,0,.11-.06,2.06,2.06,0,0,0-.09-1.23A.09.09,0,0,0,126.67,62.77Z"/><path class="cls-123" d="M128.46,67.83l-.41.22s-4-4.61-3.37-6c0-.11.17-.13.34-.08C124.93,63.39,127.33,66.46,128.46,67.83Z"/><path class="cls-124" d="M130.26,67.2l1.18-.32-1-3.36-1.2.31A15.81,15.81,0,0,0,130.26,67.2Z"/><polygon class="cls-48" points="180.66 79.37 162.36 81.09 160.64 76.95 177.3 75.56 180.66 79.37"/><polygon class="cls-132" points="178.58 76.39 161.99 77.98 159.17 72.02 174.64 70.79 178.58 76.39"/><polygon class="cls-133" points="159.82 74.14 161.99 77.98 161.94 80.21 159.17 74.16 159.82 74.14"/><polygon class="cls-134" points="159.4 72.51 161.99 77.98 161.95 79.69 159.54 74.42 159.4 72.51"/><polygon class="cls-133" points="178.58 76.39 161.99 77.98 161.94 80.21 178.28 78.69 178.58 76.39"/><polygon class="cls-135" points="165.51 77.61 162.23 71.78 161.84 71.81 165.15 77.7 165.15 79.89 165.34 79.89 165.51 79.88 165.51 77.61"/><polygon class="cls-135" points="176.33 76.63 172.65 70.95 172.25 70.98 175.97 76.73 175.97 78.92 176.15 78.92 176.33 78.9 176.33 76.63"/><polygon class="cls-136" points="178.51 72.3 162.83 75.04 159.7 69.58 174.33 67.27 178.51 72.3"/><polygon class="cls-137" points="160.48 71.55 162.83 75.04 162.95 77.17 159.87 71.62 160.48 71.55"/><polygon class="cls-134" points="159.96 70.03 162.83 75.04 162.92 76.68 160.24 71.84 159.96 70.03"/><polygon class="cls-137" points="178.51 72.3 162.83 75.04 162.95 77.17 178.39 74.51 178.51 72.3"/><polygon class="cls-138" points="166.15 74.43 162.6 69.13 162.22 69.19 165.82 74.55 165.99 76.63 166.16 76.62 166.33 76.59 166.15 74.43"/><polygon class="cls-138" points="176.37 72.7 172.45 67.56 172.08 67.62 176.04 72.81 176.21 74.9 176.38 74.88 176.55 74.86 176.37 72.7"/><path class="cls-138" d="M165.05,75.87a.49.49,0,1,1-1,.07.48.48,0,0,1,.45-.52A.49.49,0,0,1,165.05,75.87Z"/><polygon class="cls-48" points="67.52 77.23 74.55 65.21 64.75 64.67 54.01 74.44 67.52 77.23"/><polygon class="cls-139" points="54.75 73.43 65.91 63.66 74.39 64.23 66.63 75.67 54.75 73.43"/><polygon class="cls-140" points="54.75 73.43 54.75 73.94 66.67 76.42 66.63 75.67 54.75 73.43"/><polygon class="cls-141" points="66.63 75.67 74.39 64.23 74.39 64.65 66.67 76.42 66.63 75.67"/><polygon class="cls-142" points="68.37 64.33 73.39 64.61 66.34 74.59 59.38 73.41 68.37 64.33"/><polygon class="cls-142" points="63.51 66.43 65.59 66.56 62.56 69.41 60.31 69.19 63.51 66.43"/><path class="cls-143" d="M78.05,54.67l-.13-.05-7.36,8.43a1.77,1.77,0,0,0-.37.56L66.55,75.87l.52.38,7.76-11.44Z"/><path class="cls-139" d="M67.07,76.25l3.61-12.68a1.21,1.21,0,0,1,.27-.48l7.1-8.42L74.83,64.81l-.55.81Z"/><ellipse class="cls-144" cx="72.76" cy="64.97" rx="1.52" ry="0.43" transform="translate(-19.89 95.5) rotate(-60)"/><path class="cls-47" d="M65.22,64.16a4.86,4.86,0,0,0-2.72-1.29,3.25,3.25,0,0,0-2.84.27,1.66,1.66,0,0,0-.44,1.42,6.4,6.4,0,0,0,1,2.09,7.23,7.23,0,0,0,.89.73c.77-.18-.6-1.46,0-1.77.52.38.84.6,1,.94s.39,1.36,1.17,1.19a4.05,4.05,0,0,0-.87-2.54c1,.73,1.11,2.36,2,1.89a4.33,4.33,0,0,0-1.08-2.38,4.25,4.25,0,0,1,.83.79c.27.44.3,1.06,1,.83a3.81,3.81,0,0,0-.86-1.94c.48.1.86,1.25,1.62.87A6.22,6.22,0,0,0,65.22,64.16Z"/><path class="cls-47" d="M61.15,71c-.51-.13-1.26-.83-1.83-.92h-.07a12.38,12.38,0,0,1,2,1.94c-.46,1.06-1.36-.28-2.62-1.25.66.69,1,1.22,1.48,1.68.16.63-.25.8-.77.39s-1-1-1.74-1.56c-.08,0,1.16,1.62,1.07,2.07-.2.15-.64.08-1-.43a7.71,7.71,0,0,0-.92-1.16,5.73,5.73,0,0,0-1.61-.28c-.6-.25-.65-1.59-.49-1.81.41-.6,2.38-1.09,3.24-.92a6.11,6.11,0,0,1,3.79,1.87C61.86,71,61.4,71.07,61.15,71Z"/></g></g></svg>