<svg xmlns="http://www.w3.org/2000/svg" width="256" height="245" viewBox="0 0 256 245">
  <defs>
    <style>
      .cls-1 {
        fill: #fff;
        fill-rule: evenodd;
      }
    </style>
  </defs>
  <path id="login" class="cls-1" d="M1456.39,307.837a14.987,14.987,0,0,0,21.21,21.179l45-44.924a14.132,14.132,0,0,0,.99-1.089c0.07-.084.13-0.176,0.2-0.262,0.23-.3.46-0.6,0.68-0.915,0.05-.083.1-0.171,0.15-0.254,0.21-.328.42-0.661,0.6-1,0.03-.06.06-0.123,0.09-0.184,0.19-.373.38-0.752,0.54-1.143,0.02-.04.03-0.081,0.05-0.121,0.16-.41.32-0.828,0.45-1.256l0.03-.14c0.12-.418.24-0.842,0.32-1.276,0.03-.12.04-0.244,0.06-0.366,0.06-.359.12-0.719,0.16-1.086a14,14,0,0,0,0-2.989c-0.04-.371-0.1-0.733-0.16-1.1-0.02-.118-0.03-0.239-0.06-0.357-0.09-.436-0.2-0.863-0.32-1.284a0.664,0.664,0,0,0-.04-0.132c-0.13-.431-0.28-0.85-0.45-1.265a0.487,0.487,0,0,0-.04-0.11c-0.16-.394-0.35-0.775-0.54-1.151-0.03-.057-0.06-0.118-0.09-0.175-0.19-.348-0.39-0.681-0.61-1.012-0.05-.081-0.09-0.167-0.15-0.248-0.21-.317-0.44-0.619-0.68-0.918-0.06-.086-0.12-0.176-0.19-0.26a13.949,13.949,0,0,0-.99-1.089l-45-44.925a14.986,14.986,0,1,0-21.21,21.178l19.39,19.363H1376a14.976,14.976,0,1,0,0,29.951h99.78ZM1494.3,151a122.659,122.659,0,0,0-101.9,54.244,14.993,14.993,0,0,0,24.9,16.706,92.548,92.548,0,1,1,.12,103.286A14.993,14.993,0,0,0,1392.56,342a122.71,122.71,0,0,0,101.74,54c67.66,0,122.7-54.955,122.7-122.5S1561.96,151,1494.3,151Z" transform="translate(-1361 -151)"/>
</svg>
